<?xml version="1.0" encoding="UTF-8" standalone="no"?>
<!-- Created with Inkscape (http://www.inkscape.org/) -->

<svg
   width="135.46666mm"
   height="124.31656mm"
   viewBox="0 0 135.46666 124.31656"
   version="1.1"
   id="svg5"
   xml:space="preserve"
   inkscape:version="1.2.1 (9c6d41e410, 2022-07-14)"
   sodipodi:docname="infor-logo.svg"
   xmlns:inkscape="http://www.inkscape.org/namespaces/inkscape"
   xmlns:sodipodi="http://sodipodi.sourceforge.net/DTD/sodipodi-0.dtd"
   xmlns="http://www.w3.org/2000/svg"
   xmlns:svg="http://www.w3.org/2000/svg"><sodipodi:namedview
     id="namedview7"
     pagecolor="#ffffff"
     bordercolor="#000000"
     borderopacity="0.25"
     inkscape:showpageshadow="2"
     inkscape:pageopacity="0.0"
     inkscape:pagecheckerboard="0"
     inkscape:deskcolor="#d1d1d1"
     inkscape:document-units="mm"
     showgrid="false"
     inkscape:zoom="1.0544998"
     inkscape:cx="23.233765"
     inkscape:cy="212.423"
     inkscape:window-width="1920"
     inkscape:window-height="1017"
     inkscape:window-x="-8"
     inkscape:window-y="-8"
     inkscape:window-maximized="1"
     inkscape:current-layer="layer1" /><defs
     id="defs2" /><g
     inkscape:label="Camada 1"
     inkscape:groupmode="layer"
     id="layer1"
     transform="translate(-38.191568,-92.763021)"><path
       style="fill:#000000;stroke-width:0.291027"
       d="m 100.17406,217.01655 c -21.617387,-1.66946 -40.404186,-13.79239 -50.691414,-32.71067 -1.394147,-2.56382 -3.369016,-7.13315 -4.077771,-9.43484 -0.545034,-1.76999 -0.9624,-2.10922 -0.9624,-0.78221 0,0.9661 -0.181747,1.06697 -2.428096,1.34765 -1.406423,0.17572 -1.646271,0.13716 -1.646271,-0.26439 0,-0.25854 -0.270007,-0.74007 -0.600018,-1.07007 -0.568394,-0.5684 -0.629356,-1.25836 -1.156757,-13.09155 -0.306208,-6.87034 -0.485091,-12.67824 -0.397518,-12.90646 0.171923,-0.44802 0.65734,-0.60564 2.832241,-0.91962 0.773049,-0.11163 1.446418,-0.35019 1.496378,-0.53018 0.05005,-0.18 0.381456,-1.89881 0.736649,-3.8196 1.363957,-7.37603 4.954732,-16.13939 9.182064,-22.40902 6.489568,-9.62483 14.51277,-16.62368 24.721812,-21.565496 5.791002,-2.803213 10.429547,-4.314116 17.025057,-5.545493 3.53971,-0.660872 16.092724,-0.752109 19.498754,-0.141766 13.97671,2.504713 24.76454,7.952085 34.2899,17.314815 4.72319,4.64255 8.26886,9.31505 11.2437,14.81698 1.54,2.84819 1.41378,2.78944 4.52295,2.10553 2.794,-0.61456 3.45693,-0.56751 3.77459,0.26798 0.18779,0.49393 0.43063,0.66193 0.81246,0.56207 0.48027,-0.12561 0.58795,0.14367 0.91125,2.27852 0.20166,1.33152 1.27339,6.95226 2.38164,12.49053 1.10824,5.53827 2.01497,10.33564 2.01497,10.66086 0,0.51991 -0.34249,0.65132 -2.8375,1.08873 -4.52184,0.79275 -4.14584,0.58514 -4.15621,2.29482 -0.005,0.82297 -0.19104,3.00238 -0.41342,4.84314 -3.40674,28.19824 -24.85432,50.38973 -52.72445,54.55319 -2.98282,0.4456 -10.68618,0.77242 -13.35259,0.5665 z m 11.50423,-1.72626 c 24.02977,-2.95625 44.05078,-19.79362 51.03119,-42.91649 1.36307,-4.51516 2.50897,-11.32487 2.50897,-14.90979 v -1.7051 l -0.98954,0.18565 c -1.08185,0.20296 -1.01096,0.32271 -1.50232,-2.53738 -0.17587,-1.02364 -0.22441,-1.06186 -1.15661,-0.91059 -0.90152,0.14637 -0.99562,0.0859 -1.28034,-0.82317 l -0.30731,-0.98108 0.15016,1.16411 c 0.46209,3.58442 0.50401,4.80192 0.16532,4.80192 -0.51346,0 -8.87725,1.4779 -8.98747,1.58809 -0.0516,0.0518 -0.28427,1.4508 -0.51677,3.10909 -0.23252,1.65826 -0.69168,3.99593 -1.02039,5.19482 l -0.59763,2.17977 0.65672,0.53176 c 0.64996,0.52631 0.66613,0.52052 1.57667,-0.56401 0.79037,-0.94144 0.90071,-1.26652 0.78333,-2.3079 -0.11559,-1.02604 -0.0321,-1.28524 0.54354,-1.68853 0.37409,-0.26201 1.13369,-0.4764 1.688,-0.4764 0.58085,0 1.26238,-0.23242 1.60863,-0.54859 0.97802,-0.89303 1.73465,-0.98307 2.59228,-0.30846 0.42532,0.33454 0.7733,0.79521 0.7733,1.02369 0,0.27255 0.31742,0.41542 0.92291,0.41542 2.55585,0 2.64001,2.86587 0.12546,4.27307 -0.43998,0.24623 -0.47502,0.40538 -0.20171,0.91607 0.67927,1.26922 -0.94693,3.54166 -2.53446,3.54166 -0.37687,0 -1.08568,-0.40048 -1.57515,-0.88993 l -0.88992,-0.88995 -0.77701,0.74443 c -0.86686,0.8305 -2.2006,0.98203 -3.06705,0.34849 -0.47541,-0.34764 -0.78088,-0.26776 -2.50389,0.6548 -1.72971,0.92615 -2.05537,1.24055 -2.74637,2.6514 -2.47609,5.0556 -6.95705,10.63987 -11.7811,14.68193 -16.5666,13.88101 -40.664364,14.50845 -58.092622,1.51255 -6.054051,-4.51438 -11.694016,-11.52707 -14.558167,-18.10154 -0.661838,-1.51921 -0.943551,-1.8763 -1.480206,-1.8763 -0.514717,0 -0.662803,-0.16417 -0.662803,-0.73477 0,-0.50572 -0.215535,-0.8167 -0.691427,-0.99764 -0.822281,-0.31263 -0.882408,-0.70633 -1.358033,-8.89005 -0.176757,-3.04123 -0.440348,-5.9224 -0.585759,-6.40258 -0.303001,-1.00057 -0.221774,1.53134 0.3238,10.09333 0.395521,6.20695 0.292657,7.27935 -0.743462,7.75144 -0.471727,0.21493 -0.657846,0.48082 -0.544068,0.77729 0.233369,0.60817 -0.431368,2.14227 -1.078268,2.48848 -0.895699,0.47937 -2.2409,0.32775 -2.682216,-0.3023 -0.407798,-0.58222 -0.407798,-0.58222 -0.934679,0 -0.28979,0.32022 -0.839957,0.58221 -1.222585,0.58221 -0.780051,0 -2.124366,-1.18869 -2.124366,-1.87846 0,-0.46358 -0.728746,-0.62769 -0.980251,-0.22077 -0.224325,0.36298 1.910463,5.54191 3.546724,8.60427 8.185243,15.31919 22.248636,26.40071 38.792555,30.56733 2.142578,0.5396 5.074244,1.12839 6.514834,1.30841 1.440567,0.18002 2.946629,0.37459 3.346796,0.4324 1.984873,0.28671 9.307533,0.13337 12.522833,-0.2621 z m -13.032041,-3.20142 c -1.000344,-0.36423 -1.892071,-0.5437 -1.9816,-0.39884 -0.264376,0.42777 -2.639491,0.30784 -3.021615,-0.15255 -0.258651,-0.31165 -0.267768,-0.83487 -0.03645,-2.08645 0.169856,-0.91878 0.254297,-1.72503 0.187658,-1.79167 -0.211763,-0.21177 -0.857204,1.21063 -0.876931,1.93246 -0.01083,0.40473 -0.356684,0.94714 -0.828902,1.30087 -0.693808,0.5197 -0.896069,0.5529 -1.410712,0.2315 -0.330437,-0.20635 -0.668548,-0.30743 -0.751377,-0.2246 -0.08288,0.0829 -1.002401,-0.17001 -2.043487,-0.56189 -1.041097,-0.39185 -2.106505,-0.71693 -2.367561,-0.72235 -0.261044,-0.005 -0.99848,-0.26291 -1.63875,-0.57218 -0.640257,-0.30926 -1.317048,-0.56675 -1.503975,-0.57217 -0.186927,-0.005 -0.991719,-0.33728 -1.788418,-0.73745 -0.796698,-0.40017 -1.65872,-0.72756 -1.91558,-0.72756 -0.256876,0 -0.710007,-0.24297 -1.006973,-0.53993 -0.296951,-0.29697 -0.87064,-0.62293 -1.274842,-0.72439 -0.404201,-0.10141 -0.801561,-0.43932 -0.883025,-0.75085 -0.108667,-0.41547 -0.316275,-0.52243 -0.779149,-0.4014 -0.680655,0.17801 -2.343574,-1.14021 -2.343574,-1.85775 0,-0.4633 -0.155072,-0.47538 -0.910809,-0.0709 -0.429942,0.2301 -0.698855,0.21386 -1.031604,-0.0622 -0.370368,-0.30737 -0.414451,-0.78202 -0.248923,-2.6796 0.188732,-2.16364 0.168251,-2.29186 -0.33164,-2.07614 -0.293038,0.12641 -1.086046,0.25033 -1.762235,0.27525 -0.676172,0.0249 -1.32008,0.13592 -1.43088,0.24678 -0.522003,0.52202 -1.319367,-0.008 -3.754194,-2.49494 -3.14539,-3.21286 -5.593539,-6.04412 -6.60189,-7.63505 -0.405802,-0.64026 -1.146349,-1.67321 -1.645668,-2.29547 -0.499321,-0.62225 -0.907848,-1.29889 -0.907848,-1.50366 0,-0.51854 4.612621,-3.70112 5.095548,-3.5158 0.513022,0.19685 2.762159,3.04347 2.762159,3.49591 0,0.19172 0.654805,0.99355 1.455131,1.78184 0.800326,0.78828 1.462575,1.63461 1.471668,1.88073 0.0095,0.2461 0.79486,1.07999 1.746156,1.85305 0.951296,0.77306 1.736733,1.55883 1.745429,1.74615 0.0079,0.18732 0.63076,0.73348 1.382378,1.21367 0.823326,0.52601 1.578555,1.30693 1.899836,1.96443 0.459753,0.94092 0.668966,1.09135 1.517651,1.09135 0.686532,0 1.078648,0.17612 1.295893,0.58205 0.171324,0.32013 0.570948,0.58206 0.888031,0.58206 0.373282,0 0.749227,0.36217 1.066467,1.02743 0.351155,0.73637 0.617756,0.97255 0.941127,0.83374 1.159844,-0.49793 1.571839,-0.28241 1.887306,0.98725 0.280319,1.12821 0.353325,1.20443 0.761851,0.79544 0.375341,-0.37577 0.621684,-0.3953 1.455147,-0.11512 0.551814,0.18542 1.199744,0.49243 1.439845,0.68227 0.240086,0.18979 1.02585,0.51211 1.746158,0.7162 0.720283,0.20411 1.833468,0.60532 2.473713,0.89154 0.640269,0.28623 2.146319,0.74381 3.346808,1.01682 1.200488,0.27304 2.345645,0.54487 2.544826,0.60406 0.199145,0.0593 0.624295,0.53766 0.944737,1.06323 0.492811,0.80829 0.582808,0.85946 0.583723,0.33194 0.0012,-0.89324 0.841988,-1.10866 1.588662,-0.40721 0.549201,0.51598 0.675333,0.53492 1.052104,0.15809 0.357177,-0.35718 0.716386,-0.37446 2.16826,-0.10429 0.95709,0.17812 2.421021,0.33985 3.253181,0.35939 0.83216,0.0195 1.67231,0.19471 1.86698,0.38922 0.2778,0.27755 0.42374,0.25826 0.67811,-0.0896 0.23595,-0.32267 1.03427,-0.47468 2.93494,-0.55885 1.43594,-0.0635 3.0037,-0.20082 3.48391,-0.305 0.48018,-0.10428 1.52788,-0.20828 2.3282,-0.23135 l 1.45513,-0.042 0.0865,1.01859 c 0.0475,0.56023 0.29086,1.46103 0.54067,2.00178 0.64739,1.40141 0.23844,2.65468 -1.07267,3.28732 -0.55529,0.26793 -2.2903,0.62824 -3.85561,0.80067 -2.30541,0.25398 -3.02856,0.23725 -3.8071,-0.0881 -0.82682,-0.34547 -0.99847,-0.34282 -1.2284,0.019 -0.19061,0.30001 -0.9766,0.44599 -2.74097,0.50905 -2.00004,0.0714 -2.822,-0.0384 -4.292548,-0.57382 z m 3.735761,-0.89348 c 0.21317,-0.25682 0.4409,-1.30453 0.50608,-2.32821 0.11668,-1.83452 0.1079,-1.86121 -0.62775,-1.86121 -0.69344,0 -0.75247,0.10645 -0.83421,1.505 -0.0545,0.93306 -0.23572,1.55373 -0.47677,1.63324 -0.30833,0.10164 -0.34747,-0.20254 -0.18914,-1.46983 0.10982,-0.87893 0.0884,-1.6644 -0.0476,-1.74548 -0.13605,-0.0811 -0.934945,-0.24016 -1.775297,-0.35351 -1.480105,-0.19966 -1.527882,-0.18401 -1.527882,0.50027 0,1.11922 -0.330041,1.17075 -1.324575,0.20682 -1.082296,-1.049 -1.142752,-0.97138 -1.445487,1.85547 l -0.20801,1.94238 h 0.761469 c 0.54439,0 0.761469,-0.15206 0.761469,-0.53355 0,-0.89076 0.318036,-0.93061 1.321111,-0.16552 l 0.958233,0.73088 0.347638,-1.68931 c 0.498909,-2.42439 0.525901,-2.45271 0.551342,-0.57883 0.03115,2.30189 0.350789,2.81838 1.743739,2.81838 0.67135,0 1.27311,-0.18663 1.50578,-0.46699 z m 2.59398,-0.26805 c 0,-0.72027 0.0172,-0.72613 0.85862,-0.29102 1.3804,0.71383 1.46959,0.60831 1.46959,-1.73869 v -2.1827 h -0.87307 c -0.77608,0 -0.87309,0.0969 -0.87309,0.87309 0,0.96373 -0.31247,1.11204 -0.88627,0.42064 -0.20652,-0.24883 -0.61544,-0.58085 -0.90871,-0.73781 -0.49639,-0.26564 -0.53324,-0.12386 -0.53324,2.05307 v 2.33846 h 0.87309 c 0.73963,0 0.87308,-0.11234 0.87308,-0.73504 z m 6.31827,0.0419 c 0.0338,-0.033 -0.0174,-0.36049 -0.11355,-0.72803 -0.13527,-0.51699 -0.33177,-0.63822 -0.86848,-0.53561 -0.84886,0.16226 -1.19312,-0.24539 -0.38554,-0.45657 0.31832,-0.0831 0.57878,-0.36888 0.57878,-0.63476 0,-0.35094 -0.15948,-0.43277 -0.58207,-0.29865 -0.33389,0.10597 -0.58205,0.0523 -0.58205,-0.12593 0,-0.17085 0.32741,-0.31064 0.72757,-0.31064 0.59032,0 0.72758,-0.14334 0.72758,-0.75996 0,-0.71853 -0.0595,-0.74941 -1.09136,-0.56654 -1.93385,0.34273 -2.12018,0.44888 -1.98031,1.12803 0.0719,0.34925 0.21018,1.36888 0.30722,2.26585 l 0.17645,1.63082 1.51227,-0.27412 c 0.83175,-0.1508 1.5398,-0.30104 1.57348,-0.33392 z m 2.71601,-0.18656 c 0.30593,-0.16373 0.69952,-0.5654 0.87463,-0.89259 0.42522,-0.79455 -0.30889,-1.93687 -1.32632,-2.06382 -0.90504,-0.11295 -0.84063,-0.67934 0.0754,-0.66329 0.49172,0.008 0.6548,-0.15444 0.6548,-0.6548 0,-0.4648 -0.17029,-0.66628 -0.56311,-0.66628 -0.95235,0 -2.00435,0.52358 -2.35014,1.16969 -0.45817,0.85611 0.31923,2.0316 1.34357,2.0316 0.46896,0 0.69863,0.13479 0.61969,0.36378 -0.069,0.20008 -0.47277,0.35861 -0.89733,0.35231 -0.61376,-0.01 -0.77191,0.12497 -0.77191,0.65481 0,0.54946 0.15635,0.66628 0.89222,0.66628 0.49071,0 1.14253,-0.13401 1.44845,-0.29769 z m -22.130469,-0.86035 c 0.38311,-0.24225 0.376338,-0.33625 -0.05545,-0.76809 -0.461886,-0.46202 -0.439681,-0.54086 0.36378,-1.29139 1.477627,-1.3803 1.064421,-2.21232 -1.361527,-2.7416 -2.741205,-0.59805 -4.60863,-1.14302 -4.793497,-1.39891 -0.09442,-0.13068 -0.780859,-0.42088 -1.5255,-0.64499 -1.286974,-0.38733 -1.369839,-0.37759 -1.677344,0.19696 -0.24585,0.45938 -0.234619,0.65934 0.04689,0.8333 0.289558,0.17894 0.232001,0.56168 -0.263829,1.7548 -0.348778,0.83926 -0.600126,1.55806 -0.558546,1.59733 0.04166,0.0393 0.387301,0.11691 0.76825,0.17261 0.598496,0.0874 0.771936,-0.10646 1.275838,-1.42667 0.41857,-1.09659 0.738061,-1.52788 1.131805,-1.52788 0.593935,0 0.559004,0.44559 -0.208011,2.65383 l -0.365801,1.05318 1.098727,0.32918 c 1.480453,0.44354 1.95468,0.41482 2.164194,-0.13116 0.306284,-0.79815 0.197377,-0.99479 -0.550933,-0.99479 -0.400143,0 -0.727549,-0.131 -0.727549,-0.29103 0,-0.16005 0.247909,-0.29102 0.550909,-0.29102 0.303,0 0.626292,-0.19645 0.718431,-0.43655 0.102002,-0.2659 5.9e-4,-0.43653 -0.259877,-0.43653 -0.235087,0 -0.427412,-0.1186 -0.427412,-0.26377 0,-0.1451 0.281505,-0.19019 0.625558,-0.10008 0.412148,0.10777 0.759689,-0.0199 1.018605,-0.3739 0.505849,-0.69181 0.495048,-0.32023 -0.06038,2.0746 -0.370649,1.59821 -0.383928,1.99895 -0.07265,2.19631 0.555335,0.35219 0.756212,0.30751 1.060295,-0.23582 0.244841,-0.43756 0.311468,-0.423 0.666503,0.14557 0.43096,0.69005 0.751618,0.76842 1.418579,0.34668 z m -1.696499,-2.81379 c 0.05641,-0.29281 0.342117,-0.57854 0.634916,-0.63493 0.384482,-0.074 0.503902,0.0455 0.429866,0.42986 -0.05641,0.29282 -0.342117,0.57853 -0.634917,0.63492 -0.384469,0.074 -0.503901,-0.0454 -0.429865,-0.42985 z m -8.780455,-0.66079 c 0,-0.147 0.07334,-0.45822 0.162866,-0.69166 0.107872,-0.281 -0.08332,-0.48624 -0.565833,-0.60732 l -0.728698,-0.1829 0.784106,-1.46368 c 0.674985,-1.26003 0.723361,-1.50274 0.347559,-1.74431 -0.81501,-0.52396 -1.246995,-0.13956 -2.20046,1.958 l -0.951772,2.09387 1.212337,0.42964 c 1.450537,0.51405 1.939895,0.5666 1.939895,0.20836 z m -3.235724,-3.29785 c -0.01901,-1.0004 -0.117219,-2.17908 -0.218273,-2.61926 l -0.183839,-0.80037 -2.242801,1.37712 -2.242783,1.37713 0.61671,0.65646 c 0.434773,0.46279 0.72065,0.57021 0.969035,0.36405 0.501254,-0.41599 1.298697,-0.0306 1.605309,0.77591 0.179625,0.47246 0.491638,0.68788 0.996297,0.68788 0.710973,0 0.733656,-0.0589 0.700345,-1.81892 z m -1.961072,-0.48224 c -0.292769,-0.1819 -0.306565,-0.29989 -0.05338,-0.45635 0.399355,-0.24682 0.699156,-0.0284 0.551323,0.40177 -0.0605,0.17616 -0.265999,0.19867 -0.497927,0.0546 z m -2.811248,-1.98254 c 2.195709,-1.08648 2.407536,-1.32039 1.909229,-2.10823 -0.233812,-0.36967 -0.409682,-0.35898 -1.332118,0.081 l -1.062745,0.5068 0.198046,-1.17227 c 0.195528,-1.15734 0.186705,-1.17225 -0.695069,-1.17225 -0.691634,0 -0.923973,0.14779 -1.029942,0.65481 -0.168362,0.80571 -0.380727,4.29264 -0.261421,4.29264 0.04752,0 1.070887,-0.48708 2.27402,-1.0824 z m -6.99166,-3.55485 c 0.09234,-0.14953 0.616868,-0.19903 1.165482,-0.10995 1.338312,0.21719 2.259623,-0.0506 2.716287,-0.78962 0.534343,-0.86469 0.217419,-1.55653 -1.117788,-2.44015 l -1.158149,-0.76642 -0.906866,1.03283 c -1.92255,2.1897 -2.079159,2.45874 -1.698273,2.91767 0.407846,0.49141 0.758097,0.54599 0.999307,0.15571 z m 1.196322,-1.44132 c -0.08775,-0.14192 0.0079,-0.39636 0.210861,-0.5654 0.449171,-0.37278 1.236921,0.0404 0.952975,0.49988 -0.239405,0.38737 -0.940525,0.42684 -1.163836,0.0656 z m -3.680807,-2.32163 c -0.38773,-0.31433 -0.609916,-0.66693 -0.49373,-0.78354 0.116268,-0.11656 0.405105,-0.0511 0.64207,0.14557 0.534738,0.4438 1.245712,0.10741 0.772701,-0.36567 -0.542517,-0.54249 -0.345674,-0.89872 0.215818,-0.39058 0.648326,0.58671 1.037814,0.608 1.475486,0.0806 0.262671,-0.3165 0.11468,-0.59249 -0.702056,-1.30963 -0.569175,-0.49972 -1.171011,-0.9086 -1.337393,-0.9086 -0.166398,0 -0.980362,0.6475 -1.808804,1.43891 l -1.506246,1.4389 1.153191,1.18317 c 1.145318,1.1751 1.157072,1.17928 1.723554,0.61279 0.566497,-0.56649 0.565579,-0.57428 -0.13464,-1.1419 z m -3.219251,-2.75544 c 0.238691,-0.28761 0.212729,-0.5317 -0.100583,-0.94583 -0.549232,-0.72584 -0.559719,-1.16462 -0.01711,-0.71427 0.578948,0.4805 1.007147,0.14954 0.833717,-0.64451 -0.142718,-0.65373 -0.142243,-0.65368 0.425221,0.0439 0.512262,0.62964 0.626452,0.65758 1.15997,0.28388 0.58191,-0.40758 0.575194,-0.4326 -0.40181,-1.49871 -0.546477,-0.5963 -1.107747,-1.0842 -1.247264,-1.0842 -0.139549,0 -0.987982,0.60453 -1.885469,1.34338 l -1.631793,1.34338 0.895254,1.13035 c 0.944453,1.19248 1.44116,1.37975 1.96988,0.74269 z m -3.292969,-4.09697 c 0.551101,-0.40298 0.551259,-0.42107 0.0095,-1.02037 -0.303682,-0.33556 -0.454953,-0.70733 -0.336123,-0.82615 0.118795,-0.11884 0.384514,0.0143 0.590448,0.29604 0.307326,0.42029 0.432223,0.44243 0.696845,0.12356 0.236916,-0.28548 0.231641,-0.47926 -0.01996,-0.7308 -0.253644,-0.25366 -0.255591,-0.34231 -0.0079,-0.34231 0.184122,0 0.452244,0.20989 0.595817,0.46643 0.278766,0.49815 1.25219,0.46572 1.423008,-0.0474 0.05655,-0.1697 -0.331466,-0.81082 -0.862134,-1.42471 l -0.964839,-1.11616 -1.587489,1.11245 c -0.87311,0.61185 -1.701583,1.20993 -1.841053,1.32906 -0.234462,0.20027 1.214871,2.57043 1.580345,2.58438 0.08949,0.004 0.415115,-0.17841 0.723692,-0.40404 z m 59.564142,24.0836 c -0.55122,-1.06291 -1.58901,-5.02397 -1.42691,-5.44637 0.21192,-0.55225 2.65168,-1.63846 3.68017,-1.63846 0.43265,0 1.556,-0.313 2.49631,-0.69557 0.94031,-0.38256 1.88042,-0.63004 2.08913,-0.54995 0.3887,0.14922 0.69379,1.01719 0.76877,2.18733 0.0233,0.36236 0.33688,0.97424 0.69704,1.35976 l 0.6548,0.70089 0.004,-2.44706 c 10e-4,-1.3459 0.083,-2.74173 0.17945,-3.10187 0.2057,-0.76753 1.1601,-0.87522 2.0164,-0.22753 0.77721,0.58784 0.974,0.54913 0.78979,-0.15538 -0.11403,-0.43587 0.11355,-0.83266 0.82756,-1.44331 0.54161,-0.4632 1.18121,-0.8476 1.4213,-0.8542 0.2401,-0.006 1.18714,-0.60126 2.10452,-1.32145 0.97293,-0.7638 1.97342,-1.30943 2.40098,-1.30943 0.56595,0 0.7331,-0.14921 0.73351,-0.65481 2.9e-4,-0.45812 0.38957,-0.90061 1.29568,-1.47305 0.71234,-0.45002 1.37621,-1.07352 1.47524,-1.38557 0.22761,-0.71715 1.59157,-1.43402 2.72846,-1.43402 0.84375,0 0.86236,-0.0289 0.56678,-0.87672 -0.49438,-1.41813 -0.15604,-1.84086 1.33829,-1.67244 1.19327,0.13448 1.25942,0.1067 0.9452,-0.39642 -0.27449,-0.43952 -0.20221,-0.79287 0.38515,-1.88286 1.31791,-2.44571 2.87688,-3.0846 4.22858,-1.73289 0.39289,0.39288 0.71434,0.84256 0.71434,0.99927 0,0.15666 0.36014,0.32637 0.80031,0.37701 0.68762,0.079 0.83809,0.27195 1.06844,1.36916 0.22308,1.06267 0.18644,1.33681 -0.21828,1.63274 -0.2675,0.1956 -0.48636,0.48386 -0.48636,0.64058 0,0.15682 -0.49112,0.76715 -1.09136,1.35649 -0.60025,0.58935 -1.32531,1.33546 -1.61126,1.65802 -0.28596,0.32257 -0.64609,0.50849 -0.80032,0.41317 -0.15428,-0.0954 -0.28041,0.15111 -0.28041,0.54769 0,0.50803 -0.29645,0.90424 -1.00357,1.34126 -0.55196,0.34113 -1.0828,0.8699 -1.17967,1.17505 -0.23997,0.75613 -1.80848,2.03552 -2.49551,2.03552 -0.30785,0 -0.55971,0.1378 -0.55971,0.30617 0,0.1684 -0.39274,0.44307 -0.87274,0.6104 -0.48001,0.16734 -0.79268,0.43376 -0.69484,0.59207 0.18791,0.30402 -1.55828,2.2747 -2.01559,2.2747 -0.14732,0 -0.89214,0.45837 -1.6553,1.01859 -0.76319,0.56023 -1.46798,1.0186 -1.56622,1.0186 -0.0982,0 -0.83031,0.46821 -1.62684,1.04046 -0.79652,0.57224 -1.56509,0.9682 -1.70793,0.87993 -0.14287,-0.0883 -0.50066,0.10586 -0.79516,0.43116 -0.36517,0.40352 -0.74774,0.5384 -1.20301,0.42415 -0.48012,-0.12055 -0.66754,-0.0414 -0.66754,0.28174 0,0.58246 -1.3459,1.09027 -2.52838,0.95395 -0.67388,-0.0776 -0.9617,0.023 -1.05191,0.36798 -0.16125,0.61659 -3.69241,2.04834 -4.26681,1.73001 -0.2802,-0.15523 -0.71097,0.004 -1.25918,0.46514 -0.45831,0.38563 -1.05241,0.70293 -1.32025,0.70512 -0.26783,0.001 -0.77042,0.08 -1.11685,0.17294 -0.43493,0.11656 -0.71604,0.004 -0.90824,-0.36775 z m 3.06546,-1.35727 c 0.22194,-0.22195 0.57501,-0.90236 0.7846,-1.51202 l 0.38108,-1.10847 0.38813,1.07334 c 0.21347,0.59035 0.52428,1.02294 0.69068,0.96132 0.16641,-0.0616 0.79367,-0.28779 1.39391,-0.50265 1.06128,-0.37985 1.33312,-0.89791 0.86094,-1.64068 -0.14605,-0.2298 -0.36752,-0.25609 -0.65036,-0.0771 -0.23587,0.14921 -0.62531,0.26906 -0.8654,0.26641 -0.35243,-0.004 -0.33842,-0.0794 0.0728,-0.39141 0.70249,-0.53327 0.65555,-1.15615 -0.0728,-0.96569 -0.32012,0.0838 -0.58205,0.0423 -0.58205,-0.092 0,-0.13432 0.26193,-0.32729 0.58205,-0.42891 0.57057,-0.18108 0.80693,-1.13629 0.35091,-1.41812 -0.28794,-0.17795 -2.73999,0.9002 -2.99846,1.31841 -0.13162,0.21307 -0.25103,0.20854 -0.38902,-0.0143 -0.28494,-0.46102 -1.00741,-0.38919 -2.38716,0.23735 l -1.20384,0.54665 0.62179,2.23669 0.62179,2.23666 0.99845,-0.16071 c 0.54913,-0.0884 1.18001,-0.34231 1.40196,-0.56426 z m -1.54673,-1.48133 c -0.24832,-0.98946 0.0263,-1.66189 0.59044,-1.44543 0.56725,0.21767 0.58176,1.38195 0.023,1.84568 -0.34978,0.29029 -0.45781,0.21981 -0.61343,-0.40025 z m 9.64708,-1.33596 c 0.227,0 0.41274,-0.2531 0.41274,-0.56244 0,-0.59456 0.94177,-1.06446 1.47407,-0.73548 0.17334,0.10706 0.63144,-0.10236 1.01802,-0.4655 l 0.70284,-0.66027 -2.25229,-1.35439 -2.25227,-1.35439 -0.19277,1.32936 c -0.10597,0.73117 -0.20424,1.96546 -0.21826,2.7429 -0.0213,1.1752 0.0521,1.38372 0.43484,1.23687 0.25319,-0.0971 0.64608,-0.17666 0.87308,-0.17666 z m 0.12164,-2.4909 c 0,-0.24955 0.13101,-0.37278 0.29104,-0.27385 0.16006,0.0989 0.29102,0.30309 0.29102,0.45372 0,0.15063 -0.131,0.27385 -0.29102,0.27385 -0.16007,0 -0.29104,-0.20417 -0.29104,-0.45372 z m 6.39637,-1.47509 c 0.0108,-0.59711 -0.85083,-1.11389 -1.22843,-0.73631 -0.54281,0.54283 -0.75491,0.40789 -1.41445,-0.89996 -0.78857,-1.56373 -0.68914,-1.48531 -1.40033,-1.10469 -0.83308,0.44584 -0.77016,0.7581 0.57631,2.86032 l 1.17108,1.82838 1.14481,-0.80978 c 0.62964,-0.44539 1.14761,-0.95748 1.15101,-1.13796 z m 2.11008,-1.05855 c 0.99552,-0.86365 1.05006,-0.98769 0.65943,-1.50009 -0.41304,-0.54182 -0.44348,-0.5426 -1.01429,-0.026 -0.66721,0.60383 -1.14736,0.38929 -0.60131,-0.26867 0.4438,-0.53475 0.10742,-1.24572 -0.36567,-0.7727 -0.66728,0.66729 -0.84824,0.27886 -0.19433,-0.41719 0.60985,-0.64913 0.63936,-0.78335 0.25647,-1.16623 -0.38288,-0.38288 -0.57241,-0.32989 -1.64702,0.46037 l -1.21437,0.89305 1.22688,1.86779 c 0.67479,1.02727 1.35786,1.86854 1.51792,1.86949 0.16005,8.8e-4 0.77939,-0.42195 1.37629,-0.93978 z m 2.38359,-1.52818 c 0.53487,-0.4047 0.53677,-0.44678 0.0446,-0.99057 -0.49967,-0.55211 -0.48083,-0.5768 0.67828,-0.88891 0.65571,-0.17657 1.19221,-0.39271 1.19221,-0.4803 0,-0.36255 -2.20579,-3.30326 -2.47374,-3.29791 -0.16006,0.004 -0.52052,0.18002 -0.80102,0.39294 -0.48281,0.3665 -0.47846,0.42724 0.0817,1.13933 l 0.59166,0.75221 -1.42641,0.0883 -1.42641,0.0883 1.34474,1.81253 c 0.73961,0.99688 1.41023,1.81123 1.49027,1.80965 0.08,-10e-4 0.39687,-0.19307 0.70409,-0.42553 z m 4.6402,-3.81841 c 0.42198,-0.42199 0.76725,-0.93515 0.76725,-1.14036 0,-0.20522 0.45918,-0.6569 1.02041,-1.00377 0.56122,-0.34685 0.94565,-0.75158 0.85429,-0.89943 -0.33513,-0.54222 0.20007,-1.42766 0.86296,-1.42766 0.43157,0 0.78232,-0.26577 1.00987,-0.76517 0.19176,-0.42086 0.29443,-0.81939 0.22817,-0.88564 -0.24476,-0.24476 -5.1398,-0.84554 -5.1398,-0.63082 0,0.12245 0.25075,0.91508 0.55722,1.76142 1.04646,2.88984 1.04582,2.84843 0.0445,2.84843 -0.60763,0 -0.89271,0.14239 -0.89271,0.44567 0,0.60934 -0.78483,0.86292 -1.31332,0.42433 -0.61637,-0.51155 -0.53522,-1.38034 0.14921,-1.59757 0.37191,-0.11801 0.58205,-0.44035 0.58205,-0.89269 0,-0.96485 -1.22827,-0.96127 -2.19592,0.006 -1.0573,1.05731 -0.8578,2.66146 0.48682,3.91415 0.89589,0.83465 2.04795,0.77384 2.97903,-0.15729 z m 1.53508,-4.90776 c -0.102,-0.2659 -5.7e-4,-0.43654 0.25989,-0.43654 0.23509,0 0.42741,0.19644 0.42741,0.43654 0,0.24009 -0.11691,0.43654 -0.25989,0.43654 -0.14287,0 -0.33526,-0.19645 -0.42741,-0.43654 z m 4.50777,-1.7935 c 0.3114,-0.37721 0.31924,-0.51084 0.0356,-0.6063 -0.54314,-0.18278 -0.43902,-0.65533 0.14557,-0.66044 0.81663,-0.008 1.27434,-0.43232 1.06176,-0.98631 -0.13717,-0.3574 -0.39166,-0.45825 -0.85988,-0.34074 -0.55748,0.13987 -0.69603,0.0259 -0.85666,-0.70555 -0.10537,-0.47987 -0.46986,-1.06736 -0.80991,-1.30552 -0.77561,-0.54328 -1.46946,-0.15017 -2.43891,1.38155 l -0.66124,1.04479 1.79138,1.33121 c 0.98525,0.73215 1.88172,1.3312 1.99213,1.3312 0.11042,0 0.3805,-0.21775 0.60018,-0.48389 z m -2.25474,-2.26693 c -0.20063,-0.52283 0.12449,-1.10142 0.49157,-0.87458 0.36878,0.2279 0.34468,1.29717 -0.0293,1.29717 -0.16508,0 -0.37314,-0.19016 -0.46233,-0.42259 z m -34.18613,8.15023 c 2.80542,-2.79265 5.03926,-5.13506 4.96408,-5.20539 -0.0753,-0.0704 -2.73674,1.27977 -5.91457,3.0002 -5.04402,2.73077 -6.04172,3.39191 -7.85522,5.2054 l -2.07731,2.07732 h 2.89112 2.89114 z m -0.54192,-3.52982 c 22.64654,-12.13806 24.21238,-12.9776 29.23348,-15.67358 2.56101,-1.37509 5.47713,-2.92429 6.48021,-3.44267 1.11089,-0.57409 1.79348,-1.10507 1.74617,-1.35838 -0.0428,-0.22874 -3.08978,-2.7311 -6.77127,-5.5608 l -6.69361,-5.14492 -2.12079,0.29199 -2.12082,0.292 0.66193,0.70458 0.66192,0.7046 -0.67573,0.50971 c -0.37166,0.28033 -1.11727,0.74748 -1.65693,1.03812 l -0.9812,0.52841 -1.16547,-1.27586 c -1.04735,-1.14651 -1.11675,-1.31269 -0.68467,-1.63961 0.26445,-0.20007 0.65223,-0.36378 0.86173,-0.36378 0.21312,0 0.38092,-0.32312 0.38092,-0.73348 v -0.73348 l -1.16411,0.59389 c -0.64025,0.32662 -1.16411,0.77238 -1.16411,0.99055 0,0.40752 -0.85336,0.74459 -1.90288,0.75162 -0.32631,10e-4 -1.10604,0.2654 -1.73273,0.58491 -0.75671,0.38578 -1.23684,0.48354 -1.42936,0.29102 -0.32373,-0.32374 -1.62863,-0.39948 -1.62863,-0.0945 0,0.10741 0.1954,0.41126 0.43422,0.67516 0.39461,0.43604 0.27492,0.55595 -1.31209,1.31447 l -1.74632,0.83468 -1.01879,-0.98747 c -0.83462,-0.80894 -0.9394,-1.0319 -0.57958,-1.23326 0.4039,-0.22606 0.64098,-1.38098 0.28347,-1.38098 -0.0857,0 -0.46643,0.20356 -0.84613,0.45235 -0.45896,0.30072 -0.75395,0.34949 -0.88002,0.14557 -0.33909,-0.54863 -0.80977,-0.32418 -0.6446,0.30739 0.11595,0.44362 0.005,0.65513 -0.40261,0.7615 -0.77912,0.20376 -0.70934,0.44397 0.35831,1.23331 l 0.9215,0.68131 -1.98295,0.99968 -1.98296,0.99969 -1.17934,-1.17935 -1.17937,-1.17934 1.00393,-0.43553 c 0.5523,-0.23961 0.77483,-0.44065 0.49465,-0.44692 -0.28011,-0.006 -0.5093,-0.20414 -0.5093,-0.43975 0,-0.33538 -0.29364,-0.2722 -1.35296,0.29102 -0.74413,0.39567 -1.62812,0.72046 -1.96443,0.72177 -0.33629,10e-4 -1.26627,0.38189 -2.06659,0.84576 -1.42712,0.82717 -1.46649,0.83293 -2.04502,0.29894 -0.38344,-0.35394 -0.82037,-0.48421 -1.24849,-0.37225 -0.62612,0.16372 -0.63408,0.19934 -0.16116,0.72192 0.4705,0.51987 0.46718,0.57208 -0.0611,0.96249 -0.30721,0.22703 -1.18403,0.70728 -1.948454,1.06721 l -1.389854,0.65443 -1.271686,-1.24809 c -1.364546,-1.33919 -1.342101,-1.33571 -4.606633,-0.71139 -0.764392,0.1462 -0.800333,0.10116 -0.800333,-1.00233 0,-1.10377 -0.04547,-1.1607 -1.018581,-1.2743 l -1.018604,-0.11896 v 1.37357 c 0,1.52225 0.107536,1.45453 -2.983015,1.87837 l -1.382373,0.18959 V 167.314 c 0,-0.84696 -0.109941,-1.05164 -0.564886,-1.05164 -0.79207,0 -0.990084,-0.42282 -1.362922,-2.91027 l -0.327157,-2.1827 -0.03659,3.80265 -0.03659,3.80263 -4.147134,0.64014 c -2.280912,0.35208 -4.638234,0.72067 -5.238471,0.81911 -1.091352,0.17896 -1.091352,0.17896 -1.091352,-0.86857 0,-0.7559 -0.108498,-1.00589 -0.389915,-0.89792 -0.214456,0.0824 -0.539966,-0.0312 -0.723391,-0.25219 -0.264669,-0.31892 -0.790507,-4.71865 -1.259446,-10.53816 -0.02582,-0.32013 -0.124501,0.0727 -0.219445,0.87307 l -0.17256,1.45514 -1.835953,0.24595 c -1.789559,0.23971 -1.831914,0.26547 -1.676035,1.01859 0.08792,0.42495 0.364793,2.07262 0.615206,3.66148 l 0.455286,2.88885 1.97075,2.05862 c 1.083908,1.13221 3.139307,3.30195 4.567557,4.82159 1.428235,1.51967 3.654895,3.87697 4.94811,5.2385 1.293216,1.36149 2.668324,2.82434 3.055784,3.25077 5.474645,6.02509 15.641237,16.54076 15.991677,16.54076 0.251698,0 7.19555,-3.61139 15.43077,-8.0253 z m -15.511849,1.91899 c -0.440173,-0.61425 -0.797615,-1.22688 -0.794283,-1.36136 0.0036,-0.13448 0.81638,-0.71933 1.806825,-1.29965 l 1.800797,-1.05512 1.24897,1.04399 c 0.6869,0.5742 1.24879,1.11448 1.24863,1.20062 -1.5e-4,0.0861 -1.0151,0.7038 -2.25545,1.37253 l -2.255155,1.21584 z m 5.338019,-2.97067 -0.89667,-1.21928 1.92401,-1.11619 1.924,-1.11619 1.29166,1.05839 c 0.71038,0.58214 1.2517,1.09772 1.20292,1.14578 -0.16849,0.16595 -4.29112,2.46676 -4.42,2.46676 -0.0711,0 -0.53277,-0.54868 -1.02592,-1.21927 z m -8.903097,-1.30607 c -0.640245,-0.73376 -1.199851,-1.42424 -1.243539,-1.53439 -0.07903,-0.19933 4.159964,-1.77068 4.759276,-1.7642 0.310229,0.004 2.318172,2.59139 2.117319,2.72899 -0.249172,0.17074 -4.236454,1.92948 -4.346636,1.91727 -0.06736,-0.008 -0.646151,-0.61391 -1.28642,-1.34767 z m 14.226477,-0.9659 c -0.89744,-1.35612 -1.02609,-1.14081 1.59168,-2.66396 l 1.55786,-0.90646 1.16891,1.16892 1.16893,1.16892 -1.85369,1.03496 c -2.81013,1.56897 -2.72909,1.56457 -3.63369,0.19762 z m -8.769712,-1.73361 c -0.680276,-0.77841 -1.236875,-1.47582 -1.236875,-1.54981 0,-0.18139 4.204887,-1.66512 4.718957,-1.66512 0.22412,0 0.80856,0.56904 1.29878,1.26452 l 0.8913,1.26449 -2.14971,1.06371 c -1.18235,0.58504 -2.18029,1.05781 -2.21766,1.0506 -0.0374,-0.008 -0.62454,-0.64998 -1.304792,-1.42839 z m -9.044878,-1.40939 -1.168589,-1.39576 2.057826,-0.77097 2.057837,-0.771 1.266345,1.03771 c 0.696514,0.57073 1.266368,1.12476 1.266368,1.23118 0,0.21221 -3.636227,2.06459 -4.052777,2.06459 -0.142081,0 -0.784275,-0.62808 -1.42701,-1.39575 z m 22.79876,0.23469 c -0.45844,-0.47852 -0.77126,-0.93233 -0.69513,-1.00846 0.0761,-0.0761 3.60256,-1.85224 7.8365,-3.9469 4.23395,-2.09467 9.04532,-4.48722 10.69194,-5.31681 2.84464,-1.43313 3.03203,-1.48678 3.76,-1.07634 1.05901,0.59709 1.09734,0.95353 0.16081,1.49555 -1.97296,1.14183 -20.43865,10.723 -20.66631,10.723 -0.13987,0 -0.62935,-0.39152 -1.08781,-0.87004 z m -8.45425,-1.1789 c -0.99373,-1.00891 -1.28015,-1.46442 -0.98563,-1.56744 0.22834,-0.0799 1.31476,-0.47752 2.41424,-0.88366 1.09949,-0.40614 2.09225,-0.73843 2.20613,-0.73843 0.11391,0 0.62692,0.58467 1.14012,1.29929 l 0.93309,1.29932 -1.48399,0.752 c -2.79073,1.41416 -2.66778,1.41885 -4.22396,-0.16108 z m -8.74084,-1.59628 c -0.59355,-0.72435 -1.027939,-1.36608 -0.965306,-1.42603 0.06255,-0.06 0.94701,-0.44631 1.965302,-0.85853 l 1.851439,-0.74949 1.277098,1.04648 c 0.702397,0.57557 1.277087,1.13356 1.277087,1.23999 0,0.21454 -3.63849,2.06458 -4.060392,2.06458 -0.146364,0 -0.751666,-0.59264 -1.345228,-1.317 z m 14.53626,-0.0654 c -0.32049,-0.44017 -0.67532,-0.95606 -0.78852,-1.14638 -0.13306,-0.2236 0.46286,-0.72 1.68376,-1.40276 l 1.88957,-1.05672 1.17242,0.94218 c 0.64484,0.5182 1.17242,1.01979 1.17242,1.11466 0,0.20268 -3.92386,2.34934 -4.29436,2.34934 -0.13892,0 -0.5148,-0.36013 -0.83529,-0.80032 z m -23.415505,-0.56613 c -0.64081,-0.57892 -1.061137,-1.15361 -0.934043,-1.27707 0.127034,-0.12339 1.116529,-0.55608 2.198788,-0.96138 l 1.967743,-0.7369 1.015273,0.89143 c 0.558402,0.49029 1.015296,0.98934 1.015296,1.10898 0,0.11957 -0.922039,0.62479 -2.048972,1.12256 l -2.048973,0.90499 z m 14.362115,-1.52 -1.23238,-1.43103 2.01084,-0.78892 2.01083,-0.78891 1.34104,1.09887 1.34103,1.09888 -1.97398,1.10888 c -1.08569,0.60988 -2.03946,1.11437 -2.11949,1.12107 -0.08,0.006 -0.70008,-0.63177 -1.37789,-1.41884 z m 14.58374,-0.38758 c -1.43978,-1.64296 -1.46265,-1.5393 0.59331,-2.68906 l 1.89962,-1.06233 1.17244,0.94218 c 0.64482,0.51821 1.17018,1.01849 1.16748,1.11176 -0.005,0.15063 -3.89262,2.35225 -4.15428,2.35225 -0.0576,0 -0.36296,-0.29467 -0.67857,-0.6548 z m -23.346226,-0.69198 c -0.530725,-0.57829 -0.856327,-1.15725 -0.723531,-1.2866 0.35726,-0.34799 3.242147,-1.44091 3.803424,-1.44091 0.266578,0 0.909613,0.41187 1.428995,0.91526 l 0.944316,0.91527 -1.684145,0.79648 c -2.685802,1.27017 -2.695328,1.27044 -3.769059,0.10044 z m -9.130895,-1.04374 -1.351602,-1.5175 2.152224,-0.70722 2.152238,-0.70721 1.311079,0.98786 c 0.721089,0.54332 1.315133,1.08443 1.320076,1.20248 0.0084,0.17311 -3.816992,2.25911 -4.14162,2.25911 -0.04992,0 -0.698993,-0.68288 -1.442395,-1.51752 z m 23.335471,0.018 c -0.55463,-0.66461 -1.04318,-1.29268 -1.08564,-1.39574 -0.0651,-0.15792 4.14098,-1.7613 4.62027,-1.7613 0.088,0 0.58434,0.59061 1.10274,1.31247 l 0.94254,1.31246 -1.83904,0.87 c -1.01147,0.47851 -2.04004,0.87011 -2.28574,0.87025 -0.2457,1.2e-4 -0.9005,-0.54354 -1.45513,-1.20814 z m 13.97552,-0.87722 c -0.51018,-0.63486 -0.88171,-1.18857 -0.82563,-1.23049 0.056,-0.042 0.87347,-0.55072 1.81642,-1.13069 l 1.71442,-1.05446 1.276,1.04556 c 0.70178,0.57508 1.23989,1.07566 1.19581,1.11244 -0.044,0.0368 -1.01824,0.59453 -2.16478,1.23941 l -2.08462,1.17251 z M 98.048381,177.2346 c -1.07325,-1.1073 -1.114436,-1.24864 -0.420868,-1.44431 0.280109,-0.079 1.199646,-0.4209 2.043403,-0.75971 l 1.534124,-0.61604 1.08414,0.99353 c 0.59627,0.54645 1.01908,1.03856 0.9396,1.09359 -0.52071,0.36049 -3.57219,1.69263 -3.877223,1.69263 -0.205159,0 -0.791589,-0.43185 -1.303176,-0.95969 z m -9.042689,-1.39325 c -0.900423,-1.00449 -1.156151,-1.46375 -0.873082,-1.56787 0.220171,-0.081 1.16925,-0.40902 2.109055,-0.72893 l 1.708719,-0.58168 1.201535,0.92134 c 0.660838,0.50674 1.316095,1.01913 1.456084,1.13866 0.238418,0.20354 -3.613217,2.3331 -4.103382,2.26875 -0.124026,-0.0164 -0.798577,-0.66891 -1.498929,-1.45027 z m 22.960848,-0.11463 c -0.70362,-0.71694 -1.22199,-1.35169 -1.15193,-1.41057 0.07,-0.0589 1.14663,-0.47364 2.39242,-0.92167 2.52931,-0.90965 2.15069,-1.02053 3.7269,1.09151 l 0.59894,0.80255 -1.84032,0.87063 c -1.01217,0.47884 -1.97675,0.87072 -2.14351,0.87085 -0.16676,1.2e-4 -0.87888,-0.58637 -1.5825,-1.3033 z m -8.62785,-1.06183 -1.37429,-1.39528 1.43301,-0.61477 c 2.36484,-1.01455 2.74368,-0.99362 4.11462,0.22733 l 1.22651,1.09229 -2.01278,1.04284 -2.01276,1.04285 z m -23.762103,-0.07 -1.389648,-1.24675 2.61328,-0.58574 2.613266,-0.58573 1.058924,1.08442 1.058924,1.08445 -1.991512,0.65737 c -1.095344,0.36157 -2.122481,0.69819 -2.282558,0.74806 -0.160062,0.0499 -0.916369,-0.47037 -1.680676,-1.15608 z m 47.281043,0.11896 c -0.35023,-0.47372 -0.63678,-0.96997 -0.63678,-1.10279 0,-0.13273 0.69623,-0.64139 1.54718,-1.13014 l 1.54717,-0.88865 1.11628,0.93717 1.11626,0.93716 -0.69901,0.42844 c -1.46944,0.90064 -2.92373,1.68011 -3.13465,1.68011 -0.12085,0 -0.50621,-0.38759 -0.85645,-0.8613 z m -32.202704,-0.87428 c -0.993296,-1.00845 -1.297499,-1.48487 -1.007658,-1.5781 0.228351,-0.0735 1.183203,-0.40941 2.121914,-0.74654 l 1.706747,-0.61299 1.266573,0.95422 c 0.696599,0.52482 1.232304,1.07011 1.19042,1.21175 -0.06989,0.23629 -3.339109,2.18745 -3.69874,2.20749 -0.086,0.005 -0.796713,-0.64132 -1.579256,-1.43583 z m 22.462624,-0.2366 -1.36921,-1.39012 2.13124,-0.79259 c 1.17221,-0.43592 2.27338,-0.79257 2.44706,-0.79257 0.33069,0 2.26056,2.28309 2.07319,2.45266 -0.14462,0.13099 -3.70417,1.91275 -3.82107,1.91275 -0.0505,0 -0.70814,-0.62557 -1.46121,-1.39013 z m 19.19695,0.11631 -0.81983,-0.67083 0.75667,-0.4958 c 0.72307,-0.47378 0.795,-0.46848 1.62016,0.11909 1.05526,0.75141 1.07413,0.96788 0.12229,1.40159 -0.89546,0.40799 -0.69676,0.44988 -1.67924,-0.35404 z m -27.66693,-1.6021 -1.36996,-1.39087 1.8815,-0.79965 c 2.08169,-0.88474 2.36164,-0.83731 3.76519,0.63785 l 0.81821,0.85998 -1.25476,0.72574 c -2.58679,1.49616 -2.3318,1.49836 -3.84018,-0.0331 z m -23.254433,-0.0143 c -1.364619,-1.27433 -1.466537,-1.15745 1.656022,-1.89928 l 2.008532,-0.47718 0.974484,0.94451 c 0.535957,0.51946 0.974483,1.02398 0.974483,1.12114 0,0.16347 -3.709638,1.45534 -4.179053,1.45534 -0.114873,0 -0.760399,-0.51505 -1.434468,-1.14453 z m 46.078823,0.13892 -0.96053,-0.99101 1.64889,-1.05478 1.64888,-1.05477 1.17211,0.92832 c 0.64466,0.51059 1.06542,1.02193 0.93501,1.13632 -0.13036,0.1144 -0.96763,0.61725 -1.86047,1.11746 l -1.62336,0.90948 z m 7.70233,-0.0496 c -0.41248,-0.62953 -0.43118,-0.80821 -0.10633,-1.01413 0.5837,-0.36987 0.89813,-0.30835 1.7041,0.33329 0.71187,0.56671 0.71538,0.58856 0.16265,1.01212 -0.80159,0.61426 -1.1887,0.54142 -1.76051,-0.33128 z m -39.2568,-0.94664 -1.102203,-1.12875 2.049263,-0.804 2.04927,-0.804 1.1038,0.96915 c 0.6071,0.53304 1.07715,1.02273 1.04457,1.08822 -0.0799,0.16031 -3.57632,1.80813 -3.83668,1.80813 -0.11331,0 -0.70182,-0.50794 -1.30802,-1.12875 z m 23.68026,-0.0716 c -0.71331,-0.65203 -1.14114,-1.25008 -0.98994,-1.38385 0.55094,-0.48749 3.94462,-1.56392 4.14113,-1.31351 0.11211,0.14288 0.57968,0.67727 1.03885,1.18734 l 0.83485,0.92739 -1.44267,0.69597 c -0.79346,0.38278 -1.6414,0.77224 -1.88433,0.86545 -0.27038,0.10381 -0.92891,-0.27587 -1.69789,-0.97879 z m 18.37733,-0.35894 -0.64473,-0.68628 0.70421,-0.4614 c 0.66514,-0.43582 0.74137,-0.42186 1.37428,0.25185 0.65712,0.69947 0.65921,0.72147 0.10801,1.13843 -0.74392,0.56276 -0.79238,0.55512 -1.54182,-0.2426 z M 91.0461,170.0379 c -0.830249,-0.75072 -1.132647,-1.19109 -0.873071,-1.27139 0.218391,-0.0676 1.300927,-0.33759 2.405632,-0.60003 l 2.008544,-0.47718 0.974472,0.9445 c 0.535969,0.51947 0.974483,1.024 0.974483,1.12115 0,0.1527 -3.754192,1.47598 -4.095022,1.44339 -0.0688,-0.006 -0.696442,-0.52876 -1.395038,-1.16044 z m 22.6666,-0.13115 c -0.70362,-0.71694 -1.222,-1.35865 -1.15194,-1.42604 0.07,-0.0674 0.92251,-0.44436 1.89438,-0.8377 l 1.76703,-0.7152 1.22051,1.04989 c 0.67128,0.57742 1.21846,1.1356 1.216,1.24035 -0.005,0.21444 -3.06751,1.99222 -3.43183,1.99222 -0.12909,0 -0.81052,-0.58658 -1.51415,-1.30352 z m 22.30188,0.26483 c -0.45582,-0.57126 -0.78323,-1.07943 -0.72757,-1.12928 0.0556,-0.0499 0.78857,-0.51032 1.62869,-1.02326 l 1.52755,-0.93262 1.17788,0.9329 c 0.64784,0.51309 1.13911,0.96919 1.09172,1.01355 -0.15793,0.14779 -3.67488,2.1774 -3.77298,2.17738 -0.0531,0 -0.46949,-0.4674 -0.92529,-1.03867 z m -8.0179,-1.45184 c -1.27915,-1.27365 -1.27952,-1.27463 -0.58205,-1.54499 0.38384,-0.14874 1.36996,-0.5378 2.19139,-0.86445 l 1.49349,-0.59392 0.90746,1.12923 c 0.49911,0.62108 0.90748,1.18913 0.90748,1.26232 0,0.13385 -3.3948,1.96082 -3.55314,1.91226 -0.0465,-0.0142 -0.66066,-0.59948 -1.36463,-1.30045 z m -22.79745,-0.0411 -1.07662,-1.07661 1.90522,-0.81278 c 1.32402,-0.56482 2.05342,-0.73283 2.39107,-0.55076 0.6074,0.32754 1.9375,1.73223 1.77239,1.87177 -0.21405,0.18092 -3.53157,1.64499 -3.7275,1.64499 -0.10344,0 -0.67242,-0.48447 -1.26456,-1.07661 z m 15.06497,-0.95096 -1.12732,-1.15449 1.57755,-0.73433 c 0.86767,-0.40389 1.70853,-0.73017 1.86859,-0.72507 0.16007,0.005 0.79343,0.45308 1.40747,0.99552 l 1.11645,0.98626 -1.55298,0.89057 c -0.85415,0.4898 -1.69011,0.89179 -1.85771,0.89329 -0.16759,10e-4 -0.81201,-0.51677 -1.43205,-1.15175 z m 12.37105,-1.01617 c -0.67672,-0.68951 -1.1199,-1.32036 -0.98488,-1.40186 0.13496,-0.0816 1.06164,-0.49036 2.05914,-0.90854 l 1.81365,-0.76037 1.01599,1.09282 c 0.5588,0.60107 1.01953,1.16294 1.02386,1.24863 0.005,0.0856 -0.82581,0.56693 -1.84477,1.06939 l -1.85263,0.91358 z m -7.81865,-1.41532 -1.23441,-1.25778 1.77954,-0.76785 1.77955,-0.76783 1.18522,1.10556 1.1852,1.10553 -1.6081,0.92007 c -0.88445,0.50603 -1.66311,0.92005 -1.73035,0.92005 -0.0674,0 -0.67772,-0.56598 -1.35665,-1.25778 z m -29.784073,33.87173 c -0.05341,-0.14968 -1.13326,-1.33512 -2.399785,-2.63446 l -2.302776,-2.3624 -1.405996,1.38485 c -0.773306,0.76166 -1.308589,1.47555 -1.189543,1.58642 0.306729,0.28567 6.25325,2.17402 7.152579,2.27136 0.133372,0.0143 0.198868,-0.0961 0.145569,-0.24577 z m 29.587683,-3.57877 c 5.33395,-2.64587 11.62586,-7.71036 15.27243,-12.29306 1.5476,-1.9449 4.66288,-6.75518 4.66288,-7.19992 0,-0.1451 -1.177,0.36596 -2.61554,1.13576 -2.4761,1.325 -3.10848,1.89383 -11.85934,10.66786 -5.73693,5.75213 -8.96776,9.18784 -8.51621,9.05627 0.40016,-0.11656 1.77526,-0.7317 3.05578,-1.36691 z m -41.040839,-4.00077 2.308453,-2.32208 -2.315273,-2.43669 c -1.273404,-1.34019 -2.503815,-2.52703 -2.734253,-2.63743 -0.285483,-0.13686 -1.280322,0.65703 -3.122231,2.49127 l -2.703234,2.692 0.635923,0.67694 c 0.633691,0.6745 5.134086,3.85806 5.453941,3.85806 0.0925,0 1.20703,-1.04494 2.476674,-2.32207 z M 75.858777,178.928 c -0.0079,-0.16307 -1.320223,-1.66802 -2.916075,-3.34436 l -2.901566,-3.0479 -2.533605,2.5336 -2.533621,2.53361 0.5406,0.95082 c 0.297329,0.52295 1.459994,2.17265 2.583706,3.666 l 2.043107,2.71516 2.865989,-2.85521 c 1.576275,-1.57037 2.859449,-2.98865 2.851465,-3.15172 z m -24.840755,-3.7888 c 0.43178,-0.40016 0.893876,-0.72756 1.026868,-0.72756 0.133055,0 0.456347,0.3274 0.718545,0.72756 0.588182,0.8977 1.396333,0.93394 1.988032,0.0891 0.395063,-0.56402 0.396979,-0.69384 0.01648,-1.11426 -0.638489,-0.70552 -0.539157,-0.95225 0.641849,-1.59413 1.423577,-0.77374 1.65446,-1.43505 0.417127,-1.1948 -0.499162,0.0969 -1.306712,0.25346 -1.794563,0.3479 -0.731835,0.14161 -0.826162,0.24497 -0.539269,0.59066 0.26188,0.31554 0.266854,0.59649 0.02011,1.13793 -0.61245,1.34418 -2.299635,0.60743 -2.015294,-0.88002 0.07667,-0.40108 0.0925,-0.72925 0.03516,-0.72925 -0.05734,0 -0.628543,0.47362 -1.269267,1.05247 -1.260838,1.13909 -1.518901,2.20476 -0.655644,2.70757 0.280112,0.16316 0.535294,0.30063 0.567053,0.30549 0.03184,0.005 0.411044,-0.31855 0.842823,-0.71872 z m -4.247385,-1.45513 c 0,-0.40017 -0.11278,-0.72756 -0.250666,-0.72756 -0.137808,0 -0.188082,0.32739 -0.111673,0.72756 0.0765,0.40016 0.189286,0.72757 0.250666,0.72757 0.0613,0 0.111517,-0.32741 0.111517,-0.72757 z m -3.256996,-1.22083 c 0.660839,-0.15776 0.669202,-0.20887 0.509109,-3.10764 -0.08949,-1.62096 -0.294686,-5.76287 -0.455936,-9.20426 -0.588197,-12.55342 -0.554379,-12.22672 -1.262343,-12.19517 -0.344739,0.0159 -1.216598,0.17905 -1.937455,0.36378 l -1.310644,0.33584 0.359663,8.5853 c 0.197815,4.72189 0.441384,10.20234 0.541266,12.17874 l 0.181605,3.59348 1.351426,-0.19479 c 0.743287,-0.10706 1.65378,-0.26702 2.023309,-0.35528 z m 115.117419,-0.40093 c 0.84191,-0.66226 1.02742,-1.8538 0.33026,-2.12132 -0.734,-0.28166 -0.48781,-1.01795 0.5093,-1.52302 2.5354,-1.28428 2.71027,-3.04636 0.25356,-2.55501 -0.73074,0.14619 -0.86965,0.0567 -1.14711,-0.73932 -0.43513,-1.2482 -1.04004,-1.38909 -2.10751,-0.49088 -0.62933,0.52957 -1.23763,0.75705 -2.0243,0.75705 -1.35965,0 -1.62097,0.33969 -1.14514,1.48844 0.33379,0.80586 0.29481,0.94108 -0.51911,1.80135 -1.25537,1.32687 -1.61492,2.12281 -1.25917,2.78753 0.2707,0.50582 0.91417,0.90732 1.45408,0.90732 0.12324,0 0.63518,-0.39288 1.13765,-0.87309 1.04081,-0.99463 1.32583,-1.05856 1.85327,-0.41567 1.48092,1.8051 1.56962,1.83762 2.66422,0.97662 z m -3.59859,-2.88916 c -0.43952,-0.82124 0.10886,-1.74615 1.03506,-1.74615 0.92843,0 1.5734,1.20334 1.00927,1.88306 -0.52431,0.63178 -1.67416,0.55478 -2.04433,-0.13686 z m -105.092003,2.1199 0.696099,-0.16653 -0.196082,-3.52316 c -0.107872,-1.93774 -0.330341,-5.79935 -0.49441,-8.58133 -0.164069,-2.782 -0.229488,-5.23752 -0.14541,-5.45676 0.0841,-0.2192 0.473295,-0.39858 0.864826,-0.39858 0.823008,0 0.753884,-0.5139 1.461324,10.86366 0.227224,3.65406 0.457377,6.68439 0.51147,6.73405 0.13939,0.12798 3.656843,-0.53981 3.846193,-0.73027 0.08617,-0.0866 0.03896,-1.78919 -0.105021,-3.78334 -0.143985,-1.99414 -0.402776,-5.72111 -0.575178,-8.28215 -0.172401,-2.56102 -0.393668,-5.80507 -0.491701,-7.20895 l -0.178246,-2.55256 -1.053337,0.17594 c -2.186506,0.3652 -7.480338,1.30866 -8.071213,1.43845 -0.443658,0.0974 -0.58994,0.31901 -0.524394,0.79432 0.05005,0.36257 0.318793,5.28677 0.597369,10.9427 l 0.50648,10.2835 1.327541,-0.19123 c 0.730139,-0.10513 1.640773,-0.26616 2.02364,-0.35776 z m -4.972963,-11.70296 c -0.297252,-5.54023 -0.426441,-10.13076 -0.288968,-10.26823 0.343013,-0.34302 9.561033,-2.02728 10.499404,-1.91837 0.607301,0.0705 0.777168,0.26363 0.845295,0.96126 0.162676,1.66559 0.470572,1.74251 0.629002,0.15715 0.137966,-1.38095 0.25111,-1.61066 0.863607,-1.75392 0.602882,-0.14097 0.761026,-0.44307 1.093649,-2.0889 0.213885,-1.05824 0.821297,-3.21562 1.349827,-4.7942 l 0.960958,-2.87013 -1.245838,-7.56668 c -0.685218,-4.16168 -1.249641,-7.93007 -1.254297,-8.37423 -0.01107,-1.03176 0.532759,-1.23637 3.920402,-1.4757 1.44059,-0.10188 4.801607,-0.37946 7.468949,-0.61708 l 4.849713,-0.432 1.909877,-1.44557 c 5.095676,-3.85691 11.756043,-6.83072 18.452906,-8.23912 2.657426,-0.55889 4.012265,-0.65552 9.22637,-0.65815 6.16775,-0.004 7.83906,0.17755 12.22465,1.32151 2.54738,0.66445 6.75831,2.26204 9.16646,3.47767 1.7526,0.88472 1.93448,0.9166 4.12352,0.72282 2.88684,-0.25554 3.15146,-0.0719 3.15146,2.18769 0,1.64682 0.0236,1.6947 1.38239,2.80092 3.12214,2.54189 7.19273,7.11336 9.24093,10.378 0.47974,0.76464 1.13416,1.45572 1.45429,1.53571 0.32013,0.08 2.35005,-0.18481 4.5109,-0.58849 2.16089,-0.40368 4.20952,-0.73521 4.55255,-0.73672 0.64285,-0.004 0.97696,0.50197 0.97696,1.47616 0,0.30704 0.13512,0.55824 0.30014,0.55824 0.16508,0 0.27115,-0.43057 0.2357,-0.95685 -0.0921,-1.36873 0.15158,-1.59731 1.94247,-1.82106 0.87783,-0.10959 1.59606,-0.25307 1.59606,-0.31865 0,-0.40798 -2.24745,-4.44361 -3.70498,-6.65282 -7.5996,-11.51946 -18.68644,-20.15322 -31.3637,-24.4247 -6.66903,-2.247045 -12.2891,-3.147542 -19.64429,-3.147542 -9.308934,0 -16.641809,1.551215 -25.052711,5.299721 -10.470653,4.666471 -20.038656,12.919121 -26.327961,22.708511 -3.528286,5.49186 -6.829048,13.58185 -8.311821,20.37187 -0.777294,3.5594 -0.793577,5.60735 -0.144776,18.18914 0.358156,6.94502 0.609092,9.51382 0.889616,9.10713 0.03231,-0.0469 -0.183062,-4.59412 -0.478745,-10.10491 z m 9.182681,-21.8318 c -0.930593,-0.39575 -1.559024,-1.46827 -1.559024,-2.66073 0,-3.08416 3.953745,-3.89224 5.324497,-1.08825 0.463966,0.94908 0.477176,1.17752 0.117844,2.03718 -0.222598,0.53254 -0.609772,1.13829 -0.860375,1.34611 -0.602344,0.49952 -2.241882,0.69786 -3.022931,0.36569 z m 2.330585,-1.20121 c 1.433558,-1.12764 0.668888,-3.25293 -1.170377,-3.25293 -0.822834,0 -1.846154,0.95605 -1.846154,1.72477 0,0.71105 0.585617,1.56821 1.255897,1.83827 0.89714,0.36147 0.909653,0.35927 1.760634,-0.31011 z m 92.12673,-9.26934 c -2.22835,-2.22836 0.12814,-5.78463 3.02977,-4.57227 1.22795,0.51305 1.64905,1.21752 1.64905,2.75871 0,0.93511 -0.17196,1.30206 -0.89541,1.91081 -1.2528,1.05416 -2.66839,1.01778 -3.78341,-0.0972 z m 3.41472,-0.842 c 0.92055,-1.21092 0.0924,-2.96373 -1.40024,-2.96373 -0.9664,0 -1.99209,0.90588 -1.99209,1.75939 0,0.32739 0.334,0.92928 0.74221,1.33748 0.82541,0.82543 1.96493,0.76816 2.65012,-0.1332 z m -5.9871,-5.02837 c -0.69071,-0.27611 -3.84138,-3.06159 -8.71776,-7.7073 -1.79713,-1.71211 -2.41616,-2.48252 -2.27995,-2.8375 0.30166,-0.78607 1.23659,-0.57346 3.78043,0.85972 6.28065,3.53845 10.34479,7.2997 9.53086,8.82055 -0.17282,0.32289 -0.56452,0.72106 -0.87045,0.88478 -0.63938,0.34219 -0.5327,0.3437 -1.44313,-0.0203 z m 1.66263,-1.30545 c 0.12418,-0.86923 -3.58441,-4.29736 -6.80259,-6.28805 -3.15367,-1.95078 -5.07044,-2.94766 -5.07044,-2.63705 0,0.1272 1.34237,1.45772 2.98303,2.95666 1.64066,1.49897 3.76878,3.47064 4.72917,4.38157 0.96039,0.9109 2.00808,1.80811 2.32822,1.9938 0.85036,0.49322 1.73193,0.29747 1.83261,-0.40693 z m -85.603056,-2.11009 c -0.814328,-0.89983 -0.550942,-1.63391 1.247834,-3.47792 2.652326,-2.71901 10.209882,-7.54221 11.214163,-7.15682 0.768932,0.29506 0.740894,1.01973 -0.06985,1.80411 -1.977911,1.91367 -7.899287,7.35262 -9.045239,8.30834 -1.412173,1.17774 -2.58773,1.36119 -3.34692,0.52229 z m 3.496512,-1.57774 c 0.93327,-0.84033 1.76233,-1.59337 1.842368,-1.67341 0.07999,-0.08 1.687249,-1.57224 3.571578,-3.31603 1.884327,-1.74381 3.364422,-3.23218 3.289088,-3.30751 -0.166367,-0.1664 -3.357295,1.58222 -6.118804,3.35306 -2.63091,1.6871 -5.689306,4.61729 -5.689306,5.45082 0,1.52666 1.03409,1.35784 3.105076,-0.50693 z m 14.499876,-6.04308 c -1.207537,-2.40434 -1.376422,-2.60874 -2.021581,-2.44682 -0.617627,0.15507 -0.795463,-0.004 -1.450062,-1.29567 -0.410347,-0.80979 -0.746089,-1.72341 -0.746089,-2.03028 0,-0.38684 0.853073,-1.10377 2.781847,-2.33789 2.912876,-1.86378 3.283054,-2.00122 3.853543,-1.43071 0.237187,0.23718 0.349238,0.24631 0.349238,0.0285 0,-0.17642 0.384894,-0.45493 0.855307,-0.61893 0.74463,-0.259573 0.867008,-0.460967 0.945832,-1.556362 0.0771,-1.073163 0.192661,-1.272634 0.784973,-1.35638 0.382761,-0.05418 1.062893,0.174223 1.515372,0.508761 0.684883,0.506356 0.940527,0.552462 1.542461,0.278196 0.396835,-0.180813 0.902504,-0.259283 1.123722,-0.174396 0.550596,0.211266 1.167398,3.142741 0.928835,4.414401 -0.128297,0.68348 -0.08432,1.03727 0.128778,1.03727 0.177878,0 0.323424,-0.40039 0.323424,-0.88973 0,-3.934919 2.913803,-6.89004 6.184302,-6.271969 1.163753,0.219938 2.796897,1.187723 3.030176,1.795658 0.0952,0.248147 -0.19142,1.120977 -0.636982,1.939606 l -0.810101,1.488445 0.845477,0.67651 c 0.465016,0.3721 0.928436,0.67718 1.029816,0.67797 0.35346,0.004 0.53531,-1.32651 0.53926,-3.941952 0.004,-2.432931 0.24827,-3.332256 0.90638,-3.332256 0.11211,0 0.90449,0.583334 1.76071,1.296287 l 1.55676,1.296289 0.14557,-1.048299 c 0.20393,-1.46918 0.71402,-1.695977 3.09501,-1.376121 l 1.99795,0.268391 -0.0279,2.47371 -0.0279,2.473741 0.34269,-1.772619 c 0.54507,-2.819354 0.46838,-2.738301 2.59028,-2.738301 1.03234,0 2.08415,0.07952 2.33735,0.176662 0.51984,0.199472 0.59468,1.250432 0.18962,2.662775 -0.32666,1.139043 -0.22695,1.163873 0.7927,0.197293 1.81094,-1.71665 4.20299,-2.181281 6.1046,-1.18579 1.039,0.543921 2.68625,2.60953 2.68625,3.36846 0,0.26159 -0.36013,0.69735 -0.80031,0.96836 -1.94603,1.19804 -2.17651,1.4965 -1.79763,2.32803 l 0.35152,0.77149 0.80631,-1.11308 c 2.44761,-3.37882 7.01471,-3.92013 9.66162,-1.14512 0.97788,1.0252 1.09068,1.30176 1.08497,2.65981 -0.0108,2.74401 -1.72481,5.23708 -4.26577,6.20747 -2.53161,0.96684 -5.73016,-0.0935 -6.91415,-2.29201 l -0.55383,-1.02838 -2.20592,0.13733 c -1.90447,0.11848 -2.38488,0.0446 -3.51553,-0.54021 -0.7523,-0.38917 -1.6178,-1.15546 -2.03376,-1.8006 -0.69166,-1.07277 -0.73134,-1.09233 -0.88527,-0.43654 -0.14842,0.63256 -0.32652,0.6933 -2.2631,0.77216 -1.68109,0.0684 -2.13649,-0.005 -2.27441,-0.36378 -0.0949,-0.24715 -0.35021,-0.44938 -0.56751,-0.44938 -0.21728,0 -0.98152,-0.32742 -1.69827,-0.72756 -1.64299,-0.91729 -1.85871,-0.91059 -1.97217,0.0614 -0.10489,0.89824 -0.75776,1.17334 -2.89396,1.21936 -0.85521,0.0184 -1.47533,-0.12593 -1.69907,-0.39552 -0.30343,-0.36563 -0.56414,-0.30503 -1.87809,0.43652 -1.216426,0.6865 -1.876614,0.86109 -3.256377,0.86109 -1.056325,0 -1.97004,-0.1677 -2.345091,-0.4304 -0.555155,-0.38885 -0.627784,-0.37953 -0.752304,0.0966 -0.158837,0.60739 -5.684057,3.06389 -6.526502,2.90166 -0.363865,-0.07 -0.870244,-1.0103 -1.6665,-3.09426 -0.945542,-2.47472 -1.210171,-2.92723 -1.526727,-2.61066 -0.316561,0.31655 -0.158248,0.81077 0.913137,2.85131 0.712838,1.35761 1.294925,2.66482 1.293518,2.90493 -0.0036,0.49871 -2.915776,2.61923 -3.597937,2.61923 -0.276581,0 -0.960689,-1.01473 -1.76865,-2.6235 z m 3.344403,0.66366 1.107063,-0.79576 -1.454087,-2.71354 c -1.37946,-2.5743 -1.428786,-2.74147 -0.961447,-3.25787 0.430006,-0.47517 0.444848,-0.67643 0.116738,-1.58367 -0.20671,-0.57163 -0.476147,-1.03933 -0.598764,-1.03933 -0.2564,0 -4.898625,2.91408 -4.898625,3.07502 0,0.47971 1.055157,2.1539 1.294989,2.05469 0.168109,-0.0695 0.502108,-0.20344 0.742194,-0.29757 0.325223,-0.12751 0.770008,0.5333 1.744224,2.59131 0.719211,1.51936 1.418588,2.76248 1.554147,2.76248 0.135588,0 0.744648,-0.35809 1.35352,-0.79576 z m 48.078845,-0.26059 c 2.97097,-2.05813 3.40281,-5.95584 0.82833,-7.47662 -1.03145,-0.6093 -4.08574,-0.65538 -5.19035,-0.0782 -0.89472,0.46742 -2.15919,1.75909 -2.64198,2.69884 -0.17963,0.34962 -0.3261,1.13539 -0.32552,1.74616 0.004,3.47578 4.2192,5.26454 7.32952,3.10991 z m -4.20205,-1.87723 c -0.76452,-0.44527 -0.64766,-1.90199 0.22236,-2.772 0.56463,-0.56464 0.97312,-0.7111 1.78944,-0.64158 0.58176,0.0496 1.18854,0.299 1.34837,0.55434 0.46813,0.74787 -0.025,1.98075 -1.03978,2.59946 -1.04657,0.63812 -1.5702,0.69674 -2.32039,0.25978 z m 2.2268,-1.47926 c 0.49382,-0.70501 0.37239,-1.11667 -0.32939,-1.11667 -0.58873,0 -1.53365,0.83467 -1.53365,1.35473 0,0.63143 1.37729,0.45545 1.86304,-0.23806 z m -38.34486,0.19145 0.915062,-0.37963 -0.440258,-1.33732 c -0.24216,-0.73552 -0.560917,-1.33734 -0.708387,-1.33734 -0.147471,0 -0.781545,0.26194 -1.409052,0.58206 -1.349631,0.68853 -1.455133,0.70246 -1.455133,0.19223 0,-0.21441 0.335994,-0.54291 0.746662,-0.73002 0.581305,-0.26486 0.726321,-0.51691 0.654811,-1.13807 -0.09382,-0.81499 -0.321788,-0.88417 -1.619732,-0.49153 -1.236225,0.37398 -0.667875,-0.39872 0.668729,-0.90918 0.915531,-0.34963 1.274392,-0.63354 1.164102,-0.92094 -0.08769,-0.22852 -0.161436,-0.63395 -0.163902,-0.90098 -0.01082,-1.156797 -0.432391,-1.30452 -1.887163,-0.661003 -0.761001,0.336632 -1.442901,0.612053 -1.515301,0.612053 -0.07241,0 -0.04896,-0.37628 0.05196,-0.836169 0.133685,-0.608742 0.06086,-0.883331 -0.267901,-1.009462 -0.361001,-0.138606 -0.451553,0.05689 -0.451553,0.974218 0,0.980643 -0.127033,1.213143 -0.87307,1.598983 -0.480205,0.24831 -0.873082,0.50241 -0.873082,0.56465 0,0.12387 1.453689,4.08022 2.374838,6.46344 l 0.579236,1.49859 1.79701,-0.72748 c 0.988352,-0.40012 2.208784,-0.89832 2.712072,-1.1071 z m 31.19993,0.40957 c 0.50407,-0.17573 0.91651,-0.36866 0.91651,-0.42876 0,-0.06 -0.28021,-0.68599 -0.62269,-1.39091 -0.62016,-1.27649 -0.62866,-1.28151 -2.10993,-1.24466 l -1.48727,0.037 -0.0887,-1.0637 c -0.0697,-0.83685 0.0526,-1.16267 0.57405,-1.52788 0.89346,-0.6258 1.61737,-0.5843 2.05589,0.11788 0.4824,0.77246 0.78879,0.73585 1.94923,-0.23292 0.84468,-0.70518 0.9323,-0.89695 0.65036,-1.42373 -1.19499,-2.232874 -3.9613,-2.812499 -6.08402,-1.27481 -1.59002,1.1518 -2.8114,3.61397 -2.53186,5.10398 0.24217,1.29093 1.37707,2.71142 2.5875,3.23864 1.09225,0.47576 2.96852,0.51599 4.19089,0.0899 z m -23.966244,-1.68569 c 0.640246,-0.2955 1.465911,-0.86528 1.834824,-1.26617 l 0.67073,-0.72889 -1.177923,-0.93292 -1.177899,-0.93292 -0.768939,0.60483 c -0.859502,0.67608 -1.851318,0.78267 -2.378387,0.25561 -0.537112,-0.53713 -0.414528,-1.91368 0.227605,-2.55581 0.478497,-0.4785 0.712718,-0.52519 1.373736,-0.27385 0.857349,0.32595 1.125226,0.12339 1.981348,-1.498837 0.37226,-0.705368 0.342694,-0.779909 -0.508797,-1.282908 -1.110539,-0.656009 -3.063643,-0.73242 -4.130518,-0.161598 -0.43778,0.234224 -1.135955,1.00604 -1.551518,1.715125 -0.976228,1.665838 -1.082344,4.397778 -0.220773,5.684918 1.256,1.87642 3.559942,2.41951 5.826511,1.37342 z m 16.088034,-4.32019 c 0.49355,-2.358514 0.85857,-4.327014 0.81114,-4.374438 -0.18378,-0.18379 -3.07544,-0.43037 -3.07544,-0.262261 0,0.09789 -0.3274,2.04453 -0.72757,4.325819 -0.40015,2.2813 -0.72755,4.24935 -0.72755,4.37345 0,0.12402 0.63495,0.22562 1.41103,0.22562 h 1.41103 z m -9.53995,2.37227 c 0,-0.73364 0.0982,-1.28929 0.21827,-1.23478 0.12004,0.0545 1.03304,0.52379 2.02887,1.04284 0.99586,0.51906 1.86692,0.94375 1.93574,0.94375 0.0687,0 0.21098,-1.5388 0.31596,-3.41956 0.10501,-1.880741 0.25652,-3.767134 0.33673,-4.19196 0.14177,-0.750557 0.10092,-0.775252 -1.44615,-0.873078 l -1.59202,-0.100739 -0.19526,1.827798 -0.19523,1.827789 -1.06725,-0.885783 c -0.58698,-0.487181 -1.55834,-1.287967 -2.15858,-1.779495 l -1.09135,-0.893824 v 4.535372 4.53534 h 1.45514 1.45513 z m 16.15984,-0.42505 c 0.10332,-0.16706 0.0281,-0.49608 -0.16696,-0.73114 -0.40312,-0.48575 -1.15054,-0.0739 -1.15054,0.63401 0,0.4672 1.04135,0.54398 1.3175,0.0971 z m -23.999143,-1.61019 c 0.315509,-0.38015 0.309158,-0.504 -0.03705,-0.72311 -0.547469,-0.34641 -0.779332,-0.33913 -1.008501,0.0316 -0.231429,0.37448 0.03861,1.15016 0.400384,1.15016 0.145413,0 0.435855,-0.20642 0.645237,-0.4587 z m -34.260532,66.52816 c 0.221077,-0.21115 -0.143509,-6.87182 -0.56051,-10.2388 l -0.167935,-1.35606 2.968996,-0.51964 2.969012,-0.51966 -0.1424,-1.99078 c -0.0784,-1.09493 -0.192344,-2.03634 -0.253311,-2.09202 -0.06098,-0.0556 -1.387765,0.12229 -2.948389,0.39547 l -2.837509,0.4967 v -0.94302 c 0,-0.89006 0.07762,-0.95935 1.382378,-1.23438 0.760315,-0.16025 2.004443,-0.38243 2.764757,-0.49369 l 1.382378,-0.20233 v -2.18079 c 0,-1.62235 -0.09314,-2.14635 -0.363794,-2.04629 -0.200074,0.074 -2.43798,0.50437 -4.973123,0.95641 l -4.609326,0.82189 0.168426,2.20326 c 0.09267,1.2118 0.305995,4.23318 0.474151,6.71418 0.16814,2.481 0.431304,6.12234 0.584809,8.09185 0.153488,1.9695 0.279082,3.88009 0.279082,4.24576 0,0.65029 0.03975,0.65894 1.81891,0.39515 1.000416,-0.14826 1.928949,-0.37477 2.063429,-0.50321 z m 2.228893,-0.73364 c 0.669568,-0.71273 0.67611,-0.7751 0.328361,-3.12854 -0.652508,-4.416 -0.627084,-4.33386 -1.309197,-4.22894 -0.340717,0.0524 -0.59436,0.23306 -0.563632,0.40145 0.03073,0.1684 0.148103,1.96602 0.260788,3.99471 0.11278,2.0287 0.293941,3.68852 0.402713,3.68852 0.108823,0 0.505198,-0.32725 0.880967,-0.7272 z m 10.136195,-1.3157 c 1.868267,-0.32325 4.087593,-0.72609 4.931827,-0.89518 l 1.534979,-0.30741 -0.162469,-1.36026 c -0.266173,-2.22852 -1.617189,-15.74209 -1.802611,-18.03077 -0.0944,-1.16552 -0.274219,-2.18253 -0.399545,-2.25997 -0.319443,-0.19742 -9.084712,1.33242 -9.418299,1.64382 -0.247181,0.23075 0.01425,4.03163 0.997976,14.52189 0.142717,1.52061 0.343741,3.7797 0.446922,5.02019 0.103121,1.24051 0.252108,2.25547 0.330975,2.25547 0.07888,0 1.671963,-0.2645 3.540245,-0.58778 z m 0.04863,-4.48282 c -7.76e-4,-0.0126 -0.26207,-2.64161 -0.580658,-5.84289 -0.783646,-7.87426 -0.789777,-7.7122 0.291026,-7.7122 0.502963,0 0.874251,0.15428 0.875866,0.36377 0.0014,0.20009 0.263449,2.90936 0.582052,6.02061 0.748831,7.31282 0.765622,6.90941 -0.293813,7.06491 -0.480203,0.0705 -0.873713,0.11812 -0.874473,0.10585 z m 21.784961,3.29597 c 0.684955,-0.23879 0.916493,-0.49611 0.916493,-1.0186 0,-0.58436 -0.144776,-0.69909 -0.8822,-0.69909 -0.975169,0 -1.087492,-0.17465 -1.431738,-2.22633 -0.213362,-1.27164 -0.240234,-1.14957 -0.271076,1.23198 -0.04186,3.23516 -0.0048,3.29538 1.668521,2.71204 z m -9.399457,-1.02357 c 0.564297,-0.13828 0.584349,-0.26939 0.360641,-2.35732 -0.130354,-1.21598 -0.20273,-2.24321 -0.16099,-2.28274 0.04162,-0.0395 0.468777,-0.1174 0.948958,-0.17288 l 0.873083,-0.10104 0.236939,2.17711 c 0.130353,1.19739 0.26535,2.20551 0.300064,2.24025 0.03464,0.0346 0.943077,-0.0876 2.01854,-0.27178 1.755175,-0.30066 1.955366,-0.4041 1.955366,-1.01029 0,-0.67059 -0.894926,-8.02852 -0.990301,-8.14201 -0.02743,-0.0326 -1.092652,0.12656 -2.36726,0.35364 -3.439933,0.61288 -3.627062,0.59119 -3.627062,-0.42027 0,-0.96608 0.02249,-0.97655 3.201286,-1.49699 1.200477,-0.19652 2.277588,-0.43884 2.393567,-0.53847 0.210801,-0.18109 -0.97808,-10.63495 -1.239172,-10.89603 -0.07602,-0.076 -1.84012,0.17326 -3.920306,0.55388 -2.080199,0.3806 -4.207814,0.76904 -4.728014,0.86318 -0.891231,0.16128 -0.945515,0.24181 -0.940081,1.39483 0.0031,0.67303 0.120542,2.07493 0.260898,3.11535 0.140343,1.04041 0.624472,5.40801 1.075874,9.70576 l 0.820746,7.81409 1.46484,-0.19091 c 0.805662,-0.10501 1.733739,-0.2568 2.062384,-0.33733 z m -1.137591,-15.8846 c -0.365296,-1.36391 -0.21661,-1.90968 0.574389,-2.1082 0.978729,-0.24565 1.074224,-0.12767 1.104572,1.36404 0.02298,1.12649 -0.04342,1.24575 -0.737087,1.32621 -0.588691,0.0683 -0.803196,-0.0644 -0.941874,-0.58205 z m 60.413524,12.94049 2.84273,-2.83206 v -2.13851 -2.13853 l -0.94584,0.20286 c -1.41945,0.30445 -1.45663,0.36609 -1.32424,2.19642 l 0.12276,1.69672 -1.41438,0.30334 c -0.77791,0.16682 -1.70752,0.30333 -2.0658,0.30333 -0.39599,0 -1.20957,0.56666 -2.07483,1.44513 l -1.42339,1.44512 0.70677,0.55759 c 0.38872,0.30665 1.03417,0.83066 1.43434,1.16442 0.40016,0.33376 0.85617,0.6112 1.01338,0.61653 0.15713,0.005 1.56505,-1.26475 3.12854,-2.82236 z m -46.22414,0.49265 c 0.15476,-0.14826 -0.21846,-3.80452 -0.910783,-8.92352 -0.645104,-4.76982 -1.155946,-8.68984 -1.135209,-8.71117 0.02081,-0.0214 0.435687,-0.12386 0.922123,-0.2279 l 0.884399,-0.18913 0.52788,3.86572 c 1.29415,9.4771 1.9049,13.69385 1.99673,13.78568 0.23751,0.23749 4.00081,-0.57941 4.0005,-0.86839 -1.8e-4,-0.17641 -0.52404,-4.0228 -1.1641,-8.54752 -0.64008,-4.52472 -1.16377,-8.42085 -1.16377,-8.65804 0,-0.28518 0.29576,-0.43126 0.87308,-0.43126 0.48019,0 0.87968,0.0328 0.88776,0.0726 0.008,0.0401 0.5748,3.90261 1.25937,8.58356 0.6846,4.68092 1.3269,8.59297 1.42737,8.69345 0.27262,0.27264 3.99218,-0.49075 3.99218,-0.81934 0,-0.1557 -0.32353,-2.40001 -0.71896,-4.98725 -0.39543,-2.58722 -1.1027,-7.29935 -1.57168,-10.47136 -0.469,-3.17203 -0.92437,-5.83896 -1.01195,-5.92653 -0.0876,-0.0876 -3.63656,0.46982 -7.88667,1.23867 -6.375053,1.15325 -7.727462,1.48088 -7.727462,1.87203 0,0.26075 0.588535,5.1798 1.307844,10.93122 0.719321,5.75139 1.308637,10.46874 1.309623,10.48296 0.0096,0.14683 3.706415,-0.5775 3.901725,-0.76462 z m 21.06057,-3.58419 c 2.12361,-0.37566 3.93235,-0.75428 4.01942,-0.84135 0.14842,-0.14842 -3.30814,-21.499 -3.51401,-21.70567 -0.0864,-0.0866 -9.84437,1.67407 -9.92881,1.79156 -0.18284,0.25438 0.64208,3.97897 0.88122,3.97892 0.17362,-2e-5 1.34215,-0.19646 2.59673,-0.43652 1.25458,-0.24008 2.45072,-0.43651 2.65806,-0.43651 0.33595,0 0.8343,1.44869 0.58526,1.70135 -0.0546,0.0554 -1.28801,0.32907 -2.74096,0.6082 -1.45293,0.27913 -2.72882,0.59463 -2.83531,0.70114 -0.10646,0.10646 0.0312,1.66626 0.3059,3.46616 0.27472,1.79991 0.75397,4.97506 1.06501,7.05589 0.31101,2.08084 0.63903,4.09372 0.72889,4.47306 0.18481,0.78005 -0.4522,0.81679 6.1786,-0.35623 z m -2.68009,-4.62221 c -0.0779,-0.36231 -0.35212,-1.95484 -0.60938,-3.53896 -0.50051,-3.08226 -0.39819,-3.47216 0.86749,-3.30575 0.48646,0.064 0.64593,0.55619 1.13383,3.50003 0.31226,1.88407 0.5159,3.46993 0.45253,3.52413 -0.0634,0.0541 -0.47243,0.1842 -0.90903,0.2889 -0.66519,0.15952 -0.81673,0.0836 -0.93544,-0.46835 z m 15.26199,2.40504 c 5.14988,-0.898 4.62972,-0.54534 4.1883,-2.83986 -0.20846,-1.08354 -0.8536,-4.52383 -1.43364,-7.64508 -0.58004,-3.12127 -1.16565,-5.78987 -1.30136,-5.93024 -0.14113,-0.14605 -1.06918,-0.10008 -2.16827,0.10741 -1.54862,0.29221 -1.89426,0.45472 -1.78095,0.83729 0.28109,0.94908 1.97036,10.84666 1.86862,10.9484 -0.0575,0.0575 -0.48647,0.1473 -0.95319,0.19946 -0.84175,0.0941 -0.85167,0.0773 -1.23553,-2.08786 -0.21284,-1.20049 -0.73879,-4.12409 -1.16878,-6.49689 -0.61289,-3.38214 -0.70296,-4.36289 -0.41691,-4.53968 0.20069,-0.12403 1.47549,-0.39828 2.83289,-0.60944 1.35741,-0.21117 2.52195,-0.4712 2.58785,-0.57786 0.0659,-0.10657 -0.0259,-1.07278 -0.20377,-2.14694 l -0.32364,-1.95307 -0.90062,0.19828 c -0.49535,0.10898 -1.81736,0.35485 -2.93781,0.54626 -2.25665,0.38548 -2.41143,0.29687 -2.45327,-1.4045 -0.0174,-0.71121 -0.11547,-0.80921 -0.67527,-0.67568 -0.36015,0.0859 -1.27688,0.24591 -2.03718,0.3556 -0.93684,0.13512 -1.38238,0.3383 -1.38238,0.63028 0,0.23697 0.53108,3.52889 1.18016,7.31539 0.64909,3.78649 1.49932,8.78346 1.8894,11.1044 1.03292,6.1456 0.82087,5.63572 2.25663,5.42627 0.67205,-0.098 2.72796,-0.44087 4.56872,-0.76185 z m 11.18352,-2.0754 c 0.0968,-0.099 -3.32198,-18.01582 -3.48055,-18.24093 -0.0319,-0.0451 -0.98993,0.0719 -2.12927,0.26011 -1.88062,0.31058 -2.05874,0.39858 -1.93321,0.95507 0.26561,1.17745 2.7892,14.3809 3.20913,16.79013 l 0.18193,1.04379 2.0197,-0.34645 c 1.11084,-0.19054 2.07036,-0.39833 2.13227,-0.46172 z m 7.03115,-1.15052 c 1.89626,-0.32928 4.04986,-0.72781 4.78578,-0.88564 l 1.33806,-0.28696 -0.65172,-2.97046 c -0.35844,-1.63374 -0.87179,-3.98809 -1.14077,-5.23188 l -0.4891,-2.26143 -1.49735,0.19741 c -2.95002,0.38892 -2.79815,0.18037 -2.19616,3.01584 0.72073,3.39469 0.7054,3.68206 -0.20861,3.91147 -0.41905,0.10513 -0.80483,0.14826 -0.85729,0.0959 -0.0943,-0.0943 -2.24761,-10.15384 -2.60957,-12.19092 -0.17247,-0.97063 -0.1245,-1.0692 0.61082,-1.25373 0.9811,-0.24625 1.13005,-0.03 1.56777,2.27648 0.55586,2.9291 0.36374,2.73597 2.41848,2.43134 0.99792,-0.14794 1.92204,-0.3717 2.0536,-0.49723 0.23488,-0.22409 -1.44829,-8.70028 -1.80383,-9.08389 -0.16794,-0.18119 -9.64391,1.41716 -9.89984,1.66986 -0.0629,0.0621 0.85155,4.96164 2.03219,10.88779 1.77554,8.91214 2.22903,10.7748 2.62323,10.7748 0.26211,0 2.02806,-0.2694 3.92431,-0.59868 z m 14.6713,-2.61143 c 4.9853,-0.85981 4.66558,-0.73805 4.37483,-1.66617 -0.13765,-0.43931 -0.51993,-1.97738 -0.84957,-3.41797 -0.32965,-1.44057 -1.19797,-5.1075 -1.92962,-8.14873 -0.73166,-3.04123 -1.53352,-6.42268 -1.78195,-7.51433 -0.28097,-1.23465 -0.5786,-1.93806 -0.78748,-1.86105 -0.18471,0.0681 -2.43122,0.49186 -4.99224,0.94172 -2.56104,0.44989 -4.70193,0.85266 -4.75754,0.89507 -0.10862,0.083 0.71908,3.89187 0.87845,4.04198 0.0526,0.0496 1.39218,-0.16059 2.97671,-0.46711 1.58452,-0.3065 2.92553,-0.51272 2.97998,-0.45827 0.0545,0.0545 0.17729,0.49031 0.27293,0.96855 l 0.1739,0.86951 -2.93561,0.5138 c -1.74127,0.30477 -2.94042,0.6528 -2.94741,0.85543 -0.006,0.1879 0.74061,3.75745 1.66022,7.93237 l 1.67203,7.59071 1.32278,-0.24912 c 0.72753,-0.13702 2.82885,-0.50889 4.66959,-0.82639 z m -2.74694,-4.39846 c -0.32345,-0.95886 -1.61844,-6.74872 -1.52937,-6.83781 0.0544,-0.0544 0.48556,-0.1762 0.95816,-0.27071 l 0.85926,-0.17186 0.82159,3.53545 c 0.45186,1.9445 0.77566,3.58139 0.71955,3.63749 -0.0561,0.056 -0.46068,0.19205 -0.89904,0.30207 -0.55291,0.13875 -0.83778,0.0791 -0.93015,-0.19463 z m -103.294057,-0.90394 0.879889,-0.94584 -0.314168,-2.03719 c -0.172797,-1.12045 -0.398025,-1.90621 -0.500508,-1.74615 -0.323435,0.50513 -1.412966,4.40037 -1.412966,5.05157 0,0.85925 0.319633,0.78278 1.347753,-0.32239 z m 5.154678,-0.12228 c 0.6715,-0.19087 0.73562,0.1732 -3.015549,-17.12107 -0.954765,-4.40185 -1.021657,-4.96845 -0.606589,-5.13783 0.256574,-0.10465 4.9847,-0.53751 10.506927,-0.96178 10.353496,-0.79547 18.037557,-1.40614 23.864165,-1.89651 15.069935,-1.26833 30.581085,-2.40902 30.730195,-2.25992 0.18536,0.18534 -0.34582,10.5411 -0.64173,12.51148 -0.16324,1.08692 -0.15971,1.09135 0.86906,1.09135 0.96101,0 1.05506,0.082 1.3504,1.1789 0.27646,1.02677 0.39997,1.15399 0.95704,0.98588 0.35179,-0.1061 0.72584,-0.27652 0.83122,-0.37858 0.10537,-0.102 0.28647,-4.35793 0.40243,-9.45752 0.20447,-8.99325 0.19433,-9.26731 -0.33713,-9.11737 -0.30136,0.085 -1.72659,0.23659 -3.16717,0.3368 -1.44059,0.10032 -3.92886,0.30321 -5.52951,0.45107 -5.4116,0.49989 -12.77939,1.15484 -18.04363,1.60396 -4.552816,0.38843 -12.456387,1.07445 -24.955516,2.16611 -1.880765,0.16427 -4.958374,0.43206 -6.839123,0.5951 -11.151405,0.96675 -13.273823,1.16657 -13.365615,1.25836 -0.05592,0.0559 0.158082,1.66072 0.475656,3.56612 0.317589,1.9054 1.169791,7.13131 1.893801,11.61311 1.717265,10.63035 1.383978,9.54442 2.858892,9.31523 0.673956,-0.10465 1.466758,-0.25903 1.761776,-0.34289 z m 92.151089,-1.33291 c -0.005,-0.7351 -0.45911,-1.59788 -0.70932,-1.34767 -0.24152,0.24153 0.16222,2.00249 0.45912,2.00249 0.14003,0 0.25264,-0.29466 0.2502,-0.65482 z m -21.68194,-8.29425 c -0.11704,-0.28011 -0.41071,-1.54573 -0.65272,-2.8125 -0.53396,-2.7949 -0.49933,-2.83774 2.71073,-3.3556 2.41336,-0.38931 3.036,-0.19188 3.04432,0.96527 0.006,0.96474 0.4785,1.56225 0.90016,1.14058 0.26839,-0.26839 0.0731,-0.76137 -0.86345,-2.18027 -0.66563,-1.00839 -1.59591,-2.29182 -2.06728,-2.85205 l -0.85703,-1.01855 -3.36037,3.34207 c -1.84819,1.83813 -3.36036,3.56617 -3.36036,3.84007 0,0.41879 0.26596,0.48898 1.67195,0.44128 l 1.67192,-0.0567 0.26066,1.52789 c 0.17574,1.03001 0.39975,1.52788 0.68742,1.52788 0.29344,0 0.36029,-0.15909 0.21405,-0.5093 z m -18.18715,-3.55927 1.45754,-2.90448 -1.14166,-0.58243 -1.14165,-0.58244 -1.50095,2.78424 c -0.82551,1.53134 -1.43639,2.84878 -1.35753,2.92766 0.13101,0.13099 1.99333,1.2063 2.15662,1.24521 0.0385,0.01 0.72598,-1.29031 1.52763,-2.88776 z m 21.32418,2.45092 c 0.76228,-0.10753 1.45079,-0.30058 1.53004,-0.42881 0.12402,-0.20056 -0.27108,-2.67455 -0.58607,-3.67049 -0.0759,-0.23972 -0.49832,-0.25643 -1.50865,-0.0595 -2.91567,0.56789 -2.66828,0.36942 -2.38917,1.91677 0.46051,2.55295 0.53703,2.738 1.0683,2.58331 0.27477,-0.08 1.12326,-0.23353 1.88555,-0.34115 z m -6.23884,-14.29752 c -0.92547,-0.9851 -1.11317,-0.84409 -1.11317,0.83625 v 1.50957 l 0.87288,-0.83625 0.87284,-0.83625 z m -50.005604,-2.30217 5.383992,-0.46592 3.555118,-3.52199 c 1.955318,-1.93709 3.509519,-3.5676 3.453778,-3.62334 -0.150008,-0.15001 -3.818304,0.72312 -5.990304,1.42575 -2.717761,0.87915 -8.126869,3.48725 -10.488137,5.05701 -1.114303,0.7408 -2.026,1.40231 -2.026,1.47007 0,0.18038 0.226256,0.16773 6.111553,-0.34158 z m 29.539184,-2.6011 5.23848,-0.46529 1.07929,-1.04648 c 0.59362,-0.57556 1.01401,-1.15212 0.93422,-1.28123 -0.48025,-0.77705 -9.65177,-2.87196 -12.57344,-2.87196 h -1.65408 l -3.27859,3.26929 c -1.80323,1.79813 -3.27861,3.34292 -3.27861,3.43291 0,0.09 1.86621,-0.001 4.14713,-0.20417 2.28092,-0.2023 6.50444,-0.57717 9.3856,-0.83307 z"
       id="path302" /></g></svg>
